<?xml version="1.0" encoding="UTF-8"?>
<!DOCTYPE svg PUBLIC "-//W3C//DTD SVG 1.1//EN"
    "http://www.w3.org/Graphics/SVG/1.1/DTD/svg11.dtd"><svg font-size="1" viewBox="0.0 0.0 479.99999999999994 479.99999999999983" stroke="rgb(0,0,0)" xmlns="http://www.w3.org/2000/svg" width="480.0000" stroke-opacity="1" height="480.0000" version="1.1" xmlns:xlink="http://www.w3.org/1999/xlink"><defs></defs><g stroke-linejoin="miter" fill-opacity="1.0" fill="rgb(240,240,240)" stroke="rgb(0,0,0)" stroke-linecap="butt" stroke-miterlimit="10.0" stroke-opacity="1.0" stroke-width="0.0"><path d="M 480.0000,480.0000 l -0.0000,-480.0000 h -480.0000 l -0.0000,480.0000 Z"/></g><g stroke-linejoin="bevel" fill-opacity="0.0" fill="rgb(0,0,0)" stroke="rgb(0,0,0)" stroke-linecap="butt" stroke-miterlimit="10.0" stroke-opacity="1.0" stroke-width="0.44999999999999984"><path d="M 306.8571,214.2857 h -30.8571 "/></g><g stroke-linejoin="bevel" fill-opacity="0.0" fill="rgb(0,0,0)" stroke="rgb(0,0,0)" stroke-linecap="butt" stroke-miterlimit="10.0" stroke-opacity="1.0" stroke-width="0.44999999999999984"><path d="M 265.7143,317.1429 l 20.5714,20.5714 l -72.0000,51.4286 v 20.5714 "/></g><g stroke-linejoin="bevel" fill-opacity="0.0" fill="rgb(0,0,0)" stroke="rgb(0,0,0)" stroke-linecap="butt" stroke-miterlimit="10.0" stroke-opacity="1.0" stroke-width="0.44999999999999984"><path d="M 173.1429,80.5714 v 10.2857 h 10.2857 h -10.2857 v -10.2857 "/></g><g stroke-linejoin="bevel" fill-opacity="0.0" fill="rgb(0,0,0)" stroke="rgb(0,0,0)" stroke-linecap="butt" stroke-miterlimit="10.0" stroke-opacity="1.0" stroke-width="0.44999999999999984"><path d="M 152.5714,90.8571 l 20.5714,-10.2857 l 10.2857,10.2857 v 10.2857 "/></g><g stroke-linejoin="bevel" fill-opacity="0.0" fill="rgb(0,0,0)" stroke="rgb(0,0,0)" stroke-linecap="butt" stroke-miterlimit="10.0" stroke-opacity="1.0" stroke-width="0.44999999999999984"><path d="M 245.1429,245.1429 l -10.2857,-10.2857 "/></g><g stroke-linejoin="bevel" fill-opacity="0.0" fill="rgb(0,0,0)" stroke="rgb(0,0,0)" stroke-linecap="butt" stroke-miterlimit="10.0" stroke-opacity="1.0" stroke-width="0.44999999999999984"><path d="M 296.5714,234.8571 l -51.4286,10.2857 v -20.5714 "/></g><g stroke-linejoin="bevel" fill-opacity="0.0" fill="rgb(0,0,0)" stroke="rgb(0,0,0)" stroke-linecap="butt" stroke-miterlimit="10.0" stroke-opacity="1.0" stroke-width="0.44999999999999984"><path d="M 255.4286,224.5714 l 10.2857,20.5714 "/></g><g stroke-linejoin="bevel" fill-opacity="0.0" fill="rgb(0,0,0)" stroke="rgb(0,0,0)" stroke-linecap="butt" stroke-miterlimit="10.0" stroke-opacity="1.0" stroke-width="0.44999999999999984"><path d="M 276.0000,224.5714 l 20.5714,10.2857 "/></g><g stroke-linejoin="bevel" fill-opacity="0.0" fill="rgb(0,0,0)" stroke="rgb(0,0,0)" stroke-linecap="butt" stroke-miterlimit="10.0" stroke-opacity="1.0" stroke-width="0.44999999999999984"><path d="M 276.0000,204.0000 l 82.2857,-30.8571 "/></g><g stroke-linejoin="bevel" fill-opacity="0.0" fill="rgb(0,0,0)" stroke="rgb(0,0,0)" stroke-linecap="butt" stroke-miterlimit="10.0" stroke-opacity="1.0" stroke-width="0.44999999999999984"><path d="M 265.7143,193.7143 l 102.8571,-41.1429 "/></g><g stroke-linejoin="bevel" fill-opacity="0.0" fill="rgb(0,0,0)" stroke="rgb(0,0,0)" stroke-linecap="butt" stroke-miterlimit="10.0" stroke-opacity="1.0" stroke-width="0.44999999999999984"><path d="M 234.8571,224.5714 l 10.2857,-30.8571 l 82.2857,-61.7143 "/></g><g stroke-linejoin="bevel" fill-opacity="0.0" fill="rgb(0,0,0)" stroke="rgb(0,0,0)" stroke-linecap="butt" stroke-miterlimit="10.0" stroke-opacity="1.0" stroke-width="0.44999999999999984"><path d="M 183.4286,265.7143 v 10.2857 l -61.7143,20.5714 v 20.5714 l 20.5714,10.2857 l -20.5714,10.2857 "/></g><g stroke-linejoin="bevel" fill-opacity="0.0" fill="rgb(0,0,0)" stroke="rgb(0,0,0)" stroke-linecap="butt" stroke-miterlimit="10.0" stroke-opacity="1.0" stroke-width="0.44999999999999984"><path d="M 245.1429,276.0000 h -51.4286 l -10.2857,-10.2857 l 10.2857,-10.2857 "/></g><g stroke-linejoin="bevel" fill-opacity="0.0" fill="rgb(0,0,0)" stroke="rgb(0,0,0)" stroke-linecap="butt" stroke-miterlimit="10.0" stroke-opacity="1.0" stroke-width="0.44999999999999984"><path d="M 224.5714,70.2857 h 20.5714 v 20.5714 l 20.5714,20.5714 v 20.5714 l -51.4286,41.1429 l -10.2857,30.8571 l 30.8571,10.2857 v -20.5714 l 92.5714,-61.7143 l 41.1429,-10.2857 h 20.5714 l -30.8571,51.4286 l -10.2857,41.1429 h -41.1429 l -10.2857,20.5714 l 20.5714,30.8571 l 10.2857,-20.5714 l -10.2857,-10.2857 v -10.2857 l 30.8571,20.5714 l 10.2857,10.2857 l -10.2857,10.2857 l -30.8571,10.2857 l -10.2857,41.1429 l 20.5714,20.5714 l -92.5714,61.7143 v 20.5714 l -30.8571,-10.2857 l 10.2857,-30.8571 l 51.4286,-41.1429 v -20.5714 l -20.5714,-20.5714 v -20.5714 l 10.2857,-10.2857 "/></g><g stroke-linejoin="bevel" fill-opacity="0.0" fill="rgb(0,0,0)" stroke="rgb(0,0,0)" stroke-linecap="butt" stroke-miterlimit="10.0" stroke-opacity="1.0" stroke-width="0.44999999999999984"><path d="M 193.7143,70.2857 h 30.8571 l 20.5714,41.1429 l -30.8571,61.7143 "/></g><g stroke-linejoin="bevel" fill-opacity="0.0" fill="rgb(0,0,0)" stroke="rgb(0,0,0)" stroke-linecap="butt" stroke-miterlimit="10.0" stroke-opacity="1.0" stroke-width="0.44999999999999984"><path d="M 183.4286,80.5714 v -20.5714 l 20.5714,20.5714 l -10.2857,10.2857 "/></g><g stroke-linejoin="bevel" fill-opacity="0.0" fill="rgb(0,0,0)" stroke="rgb(0,0,0)" stroke-linecap="butt" stroke-miterlimit="10.0" stroke-opacity="1.0" stroke-width="0.44999999999999984"><path d="M 121.7143,90.8571 l 61.7143,-20.5714 "/></g><g stroke-linejoin="bevel" fill-opacity="0.0" fill="rgb(0,0,0)" stroke="rgb(0,0,0)" stroke-linecap="butt" stroke-miterlimit="10.0" stroke-opacity="1.0" stroke-width="0.44999999999999984"><path d="M 142.2857,111.4286 l 10.2857,10.2857 "/></g><g stroke-linejoin="bevel" fill-opacity="0.0" fill="rgb(0,0,0)" stroke="rgb(0,0,0)" stroke-linecap="butt" stroke-miterlimit="10.0" stroke-opacity="1.0" stroke-width="0.44999999999999984"><path d="M 162.8571,121.7143 l -41.1429,10.2857 l 20.5714,-10.2857 l -20.5714,-10.2857 v -20.5714 h 10.2857 v 10.2857 h -10.2857 "/></g><g stroke-linejoin="bevel" fill-opacity="0.0" fill="rgb(0,0,0)" stroke="rgb(0,0,0)" stroke-linecap="butt" stroke-miterlimit="10.0" stroke-opacity="1.0" stroke-width="0.44999999999999984"><path d="M 183.4286,121.7143 h -20.5714 v -10.2857 "/></g><g stroke-linejoin="bevel" fill-opacity="0.0" fill="rgb(0,0,0)" stroke="rgb(0,0,0)" stroke-linecap="butt" stroke-miterlimit="10.0" stroke-opacity="1.0" stroke-width="0.44999999999999984"><path d="M 142.2857,234.8571 v -20.5714 l 10.2857,-41.1429 l 30.8571,-51.4286 h 20.5714 l 10.2857,-10.2857 "/></g><g stroke-linejoin="bevel" fill-opacity="0.0" fill="rgb(0,0,0)" stroke="rgb(0,0,0)" stroke-linecap="butt" stroke-miterlimit="10.0" stroke-opacity="1.0" stroke-width="0.44999999999999984"><path d="M 152.5714,255.4286 l -10.2857,-10.2857 l -30.8571,-20.5714 v 10.2857 l 10.2857,10.2857 l -10.2857,20.5714 l -20.5714,-30.8571 l 10.2857,-20.5714 h 41.1429 "/></g><g stroke-linejoin="bevel" fill-opacity="0.0" fill="rgb(0,0,0)" stroke="rgb(0,0,0)" stroke-linecap="butt" stroke-miterlimit="10.0" stroke-opacity="1.0" stroke-width="0.44999999999999984"><path d="M 121.7143,337.7143 l -20.5714,-20.5714 l 10.2857,-41.1429 l 30.8571,-10.2857 l 10.2857,-10.2857 l 10.2857,-20.5714 "/></g></svg>