<?xml version="1.0" encoding="UTF-8"?>
<!DOCTYPE svg PUBLIC "-//W3C//DTD SVG 1.1//EN"
    "http://www.w3.org/Graphics/SVG/1.1/DTD/svg11.dtd"><svg font-size="1" viewBox="0.0 0.0 480.0 319.99999999999994" stroke="rgb(0,0,0)" xmlns="http://www.w3.org/2000/svg" width="480.0000" stroke-opacity="1" height="320.0000" version="1.1" xmlns:xlink="http://www.w3.org/1999/xlink"><defs></defs><g stroke-linejoin="miter" fill-opacity="1.0" fill="rgb(240,240,240)" stroke="rgb(0,0,0)" stroke-linecap="butt" stroke-miterlimit="10.0" stroke-opacity="1.0" stroke-width="0.4166666666666666"><path d="M 480.0000,320.0000 l -0.0000,-160.0000 h -160.0000 l -0.0000,160.0000 Z"/></g><g stroke-linejoin="miter" fill-opacity="0.0" fill="rgb(0,0,0)" stroke="rgb(0,0,0)" stroke-linecap="butt" stroke-miterlimit="10.0" stroke-opacity="1.0" stroke-width="0.4166666666666666"><path d="M 395.0655,238.5662 l 0.6242,1.5070 l -0.6242,1.5070 l -1.5070,0.6242 l -1.5070,-0.6242 l -0.6242,-1.5070 l 0.6242,-1.5070 l 1.5070,-0.6242 Z"/></g><g stroke-linejoin="miter" fill-opacity="0.0" fill="rgb(0,0,0)" stroke="rgb(0,0,0)" stroke-linecap="butt" stroke-miterlimit="10.0" stroke-opacity="1.0" stroke-width="0.4166666666666666"><path d="M 395.1308,238.5526 l 0.6605,1.5947 l -0.6605,1.5947 l -1.5947,0.6605 l -1.5947,-0.6605 l -0.6605,-1.5947 l 0.6605,-1.5947 l 1.5947,-0.6605 Z"/></g><g stroke-linejoin="miter" fill-opacity="0.0" fill="rgb(0,0,0)" stroke="rgb(0,0,0)" stroke-linecap="butt" stroke-miterlimit="10.0" stroke-opacity="1.0" stroke-width="0.4166666666666666"><path d="M 395.1767,238.5270 l 0.6990,1.6875 l -0.6990,1.6875 l -1.6875,0.6990 l -1.6875,-0.6990 l -0.6990,-1.6875 l 0.6990,-1.6875 l 1.6875,-0.6990 Z"/></g><g stroke-linejoin="miter" fill-opacity="0.0" fill="rgb(0,0,0)" stroke="rgb(0,0,0)" stroke-linecap="butt" stroke-miterlimit="10.0" stroke-opacity="1.0" stroke-width="0.4166666666666666"><path d="M 395.2058,238.4811 l 0.7397,1.7857 l -0.7397,1.7857 l -1.7857,0.7397 l -1.7857,-0.7397 l -0.7397,-1.7857 l 0.7397,-1.7857 l 1.7857,-0.7397 Z"/></g><g stroke-linejoin="miter" fill-opacity="0.0" fill="rgb(0,0,0)" stroke="rgb(0,0,0)" stroke-linecap="butt" stroke-miterlimit="10.0" stroke-opacity="1.0" stroke-width="0.4166666666666666"><path d="M 395.2230,238.4073 l 0.7827,1.8897 l -0.7827,1.8897 l -1.8897,0.7827 l -1.8897,-0.7827 l -0.7827,-1.8897 l 0.7827,-1.8897 l 1.8897,-0.7827 Z"/></g><g stroke-linejoin="miter" fill-opacity="0.0" fill="rgb(0,0,0)" stroke="rgb(0,0,0)" stroke-linecap="butt" stroke-miterlimit="10.0" stroke-opacity="1.0" stroke-width="0.4166666666666666"><path d="M 395.2359,238.2992 l 0.8283,1.9996 l -0.8283,1.9996 l -1.9996,0.8283 l -1.9996,-0.8283 l -0.8283,-1.9996 l 0.8283,-1.9996 l 1.9996,-0.8283 Z"/></g><g stroke-linejoin="miter" fill-opacity="0.0" fill="rgb(0,0,0)" stroke="rgb(0,0,0)" stroke-linecap="butt" stroke-miterlimit="10.0" stroke-opacity="1.0" stroke-width="0.4166666666666666"><path d="M 395.2539,238.1530 l 0.8765,2.1160 l -0.8765,2.1160 l -2.1160,0.8765 l -2.1160,-0.8765 l -0.8765,-2.1160 l 0.8765,-2.1160 l 2.1160,-0.8765 Z"/></g><g stroke-linejoin="miter" fill-opacity="0.0" fill="rgb(0,0,0)" stroke="rgb(0,0,0)" stroke-linecap="butt" stroke-miterlimit="10.0" stroke-opacity="1.0" stroke-width="0.4166666666666666"><path d="M 395.2879,237.9676 l 0.9275,2.2392 l -0.9275,2.2392 l -2.2392,0.9275 l -2.2392,-0.9275 l -0.9275,-2.2392 l 0.9275,-2.2392 l 2.2392,-0.9275 Z"/></g><g stroke-linejoin="miter" fill-opacity="0.0" fill="rgb(0,0,0)" stroke="rgb(0,0,0)" stroke-linecap="butt" stroke-miterlimit="10.0" stroke-opacity="1.0" stroke-width="0.4166666666666666"><path d="M 395.3487,237.7455 l 0.9815,2.3695 l -0.9815,2.3695 l -2.3695,0.9815 l -2.3695,-0.9815 l -0.9815,-2.3695 l 0.9815,-2.3695 l 2.3695,-0.9815 Z"/></g><g stroke-linejoin="miter" fill-opacity="0.0" fill="rgb(0,0,0)" stroke="rgb(0,0,0)" stroke-linecap="butt" stroke-miterlimit="10.0" stroke-opacity="1.0" stroke-width="0.4166666666666666"><path d="M 395.4467,237.4926 l 1.0386,2.5074 l -1.0386,2.5074 l -2.5074,1.0386 l -2.5074,-1.0386 l -1.0386,-2.5074 l 1.0386,-2.5074 l 2.5074,-1.0386 Z"/></g><g stroke-linejoin="miter" fill-opacity="0.0" fill="rgb(0,0,0)" stroke="rgb(0,0,0)" stroke-linecap="butt" stroke-miterlimit="10.0" stroke-opacity="1.0" stroke-width="0.4166666666666666"><path d="M 395.5902,237.2178 l 1.0991,2.6534 l -1.0991,2.6534 l -2.6534,1.0991 l -2.6534,-1.0991 l -1.0991,-2.6534 l 1.0991,-2.6534 l 2.6534,-1.0991 Z"/></g><g stroke-linejoin="miter" fill-opacity="0.0" fill="rgb(0,0,0)" stroke="rgb(0,0,0)" stroke-linecap="butt" stroke-miterlimit="10.0" stroke-opacity="1.0" stroke-width="0.4166666666666666"><path d="M 395.7842,236.9329 l 1.1630,2.8078 l -1.1630,2.8078 l -2.8078,1.1630 l -2.8078,-1.1630 l -1.1630,-2.8078 l 1.1630,-2.8078 l 2.8078,-1.1630 Z"/></g><g stroke-linejoin="miter" fill-opacity="0.0" fill="rgb(0,0,0)" stroke="rgb(0,0,0)" stroke-linecap="butt" stroke-miterlimit="10.0" stroke-opacity="1.0" stroke-width="0.4166666666666666"><path d="M 396.0301,236.6511 l 1.2307,2.9712 l -1.2307,2.9712 l -2.9712,1.2307 l -2.9712,-1.2307 l -1.2307,-2.9712 l 1.2307,-2.9712 l 2.9712,-1.2307 Z"/></g><g stroke-linejoin="miter" fill-opacity="0.0" fill="rgb(0,0,0)" stroke="rgb(0,0,0)" stroke-linecap="butt" stroke-miterlimit="10.0" stroke-opacity="1.0" stroke-width="0.4166666666666666"><path d="M 396.3248,236.3860 l 1.3023,3.1441 l -1.3023,3.1441 l -3.1441,1.3023 l -3.1441,-1.3023 l -1.3023,-3.1441 l 1.3023,-3.1441 l 3.1441,-1.3023 Z"/></g><g stroke-linejoin="miter" fill-opacity="0.0" fill="rgb(0,0,0)" stroke="rgb(0,0,0)" stroke-linecap="butt" stroke-miterlimit="10.0" stroke-opacity="1.0" stroke-width="0.4166666666666666"><path d="M 396.6604,236.1501 l 1.3781,3.3271 l -1.3781,3.3271 l -3.3271,1.3781 l -3.3271,-1.3781 l -1.3781,-3.3271 l 1.3781,-3.3271 l 3.3271,-1.3781 Z"/></g><g stroke-linejoin="miter" fill-opacity="0.0" fill="rgb(0,0,0)" stroke="rgb(0,0,0)" stroke-linecap="butt" stroke-miterlimit="10.0" stroke-opacity="1.0" stroke-width="0.4166666666666666"><path d="M 397.0250,235.9531 l 1.4583,3.5208 l -1.4583,3.5208 l -3.5208,1.4583 l -3.5208,-1.4583 l -1.4583,-3.5208 l 1.4583,-3.5208 l 3.5208,-1.4583 Z"/></g><g stroke-linejoin="miter" fill-opacity="0.0" fill="rgb(0,0,0)" stroke="rgb(0,0,0)" stroke-linecap="butt" stroke-miterlimit="10.0" stroke-opacity="1.0" stroke-width="0.4166666666666666"><path d="M 397.4031,235.8007 l 1.5432,3.7257 l -1.5432,3.7257 l -3.7257,1.5432 l -3.7257,-1.5432 l -1.5432,-3.7257 l 1.5432,-3.7257 l 3.7257,-1.5432 Z"/></g><g stroke-linejoin="miter" fill-opacity="0.0" fill="rgb(0,0,0)" stroke="rgb(0,0,0)" stroke-linecap="butt" stroke-miterlimit="10.0" stroke-opacity="1.0" stroke-width="0.4166666666666666"><path d="M 397.7770,235.6934 l 1.6330,3.9425 l -1.6330,3.9425 l -3.9425,1.6330 l -3.9425,-1.6330 l -1.6330,-3.9425 l 1.6330,-3.9425 l 3.9425,-1.6330 Z"/></g><g stroke-linejoin="miter" fill-opacity="0.0" fill="rgb(0,0,0)" stroke="rgb(0,0,0)" stroke-linecap="butt" stroke-miterlimit="10.0" stroke-opacity="1.0" stroke-width="0.4166666666666666"><path d="M 398.1288,235.6255 l 1.7281,4.1720 l -1.7281,4.1720 l -4.1720,1.7281 l -4.1720,-1.7281 l -1.7281,-4.1720 l 1.7281,-4.1720 l 4.1720,-1.7281 Z"/></g><g stroke-linejoin="miter" fill-opacity="0.0" fill="rgb(0,0,0)" stroke="rgb(0,0,0)" stroke-linecap="butt" stroke-miterlimit="10.0" stroke-opacity="1.0" stroke-width="0.4166666666666666"><path d="M 398.4418,235.5852 l 1.8287,4.4148 l -1.8287,4.4148 l -4.4148,1.8287 l -4.4148,-1.8287 l -1.8287,-4.4148 l 1.8287,-4.4148 l 4.4148,-1.8287 Z"/></g><g stroke-linejoin="miter" fill-opacity="0.0" fill="rgb(0,0,0)" stroke="rgb(0,0,0)" stroke-linecap="butt" stroke-miterlimit="10.0" stroke-opacity="1.0" stroke-width="0.4166666666666666"><path d="M 398.7032,235.5551 l 1.9351,4.6717 l -1.9351,4.6717 l -4.6717,1.9351 l -4.6717,-1.9351 l -1.9351,-4.6717 l 1.9351,-4.6717 l 4.6717,-1.9351 Z"/></g><g stroke-linejoin="miter" fill-opacity="0.0" fill="rgb(0,0,0)" stroke="rgb(0,0,0)" stroke-linecap="butt" stroke-miterlimit="10.0" stroke-opacity="1.0" stroke-width="0.4166666666666666"><path d="M 398.9054,235.5130 l 2.0477,4.9436 l -2.0477,4.9436 l -4.9436,2.0477 l -4.9436,-2.0477 l -2.0477,-4.9436 l 2.0477,-4.9436 l 4.9436,-2.0477 Z"/></g><g stroke-linejoin="miter" fill-opacity="0.0" fill="rgb(0,0,0)" stroke="rgb(0,0,0)" stroke-linecap="butt" stroke-miterlimit="10.0" stroke-opacity="1.0" stroke-width="0.4166666666666666"><path d="M 399.0479,235.4337 l 2.1669,5.2313 l -2.1669,5.2313 l -5.2313,2.1669 l -5.2313,-2.1669 l -2.1669,-5.2313 l 2.1669,-5.2313 l 5.2313,-2.1669 Z"/></g><g stroke-linejoin="miter" fill-opacity="0.0" fill="rgb(0,0,0)" stroke="rgb(0,0,0)" stroke-linecap="butt" stroke-miterlimit="10.0" stroke-opacity="1.0" stroke-width="0.4166666666666666"><path d="M 399.1379,235.2915 l 2.2930,5.5358 l -2.2930,5.5358 l -5.5358,2.2930 l -5.5358,-2.2930 l -2.2930,-5.5358 l 2.2930,-5.5358 l 5.5358,-2.2930 Z"/></g><g stroke-linejoin="miter" fill-opacity="0.0" fill="rgb(0,0,0)" stroke="rgb(0,0,0)" stroke-linecap="butt" stroke-miterlimit="10.0" stroke-opacity="1.0" stroke-width="0.4166666666666666"><path d="M 399.1913,235.0625 l 2.4265,5.8580 l -2.4265,5.8580 l -5.8580,2.4265 l -5.8580,-2.4265 l -2.4265,-5.8580 l 2.4265,-5.8580 l 5.8580,-2.4265 Z"/></g><g stroke-linejoin="miter" fill-opacity="0.0" fill="rgb(0,0,0)" stroke="rgb(0,0,0)" stroke-linecap="butt" stroke-miterlimit="10.0" stroke-opacity="1.0" stroke-width="0.4166666666666666"><path d="M 399.2313,234.7275 l 2.5677,6.1989 l -2.5677,6.1989 l -6.1989,2.5677 l -6.1989,-2.5677 l -2.5677,-6.1989 l 2.5677,-6.1989 l 6.1989,-2.5677 Z"/></g><g stroke-linejoin="miter" fill-opacity="0.0" fill="rgb(0,0,0)" stroke="rgb(0,0,0)" stroke-linecap="butt" stroke-miterlimit="10.0" stroke-opacity="1.0" stroke-width="0.4166666666666666"><path d="M 399.2872,234.2742 l 2.7171,6.5597 l -2.7171,6.5597 l -6.5597,2.7171 l -6.5597,-2.7171 l -2.7171,-6.5597 l 2.7171,-6.5597 l 6.5597,-2.7171 Z"/></g><g stroke-linejoin="miter" fill-opacity="0.0" fill="rgb(0,0,0)" stroke="rgb(0,0,0)" stroke-linecap="butt" stroke-miterlimit="10.0" stroke-opacity="1.0" stroke-width="0.4166666666666666"><path d="M 399.3924,233.6996 l 2.8753,6.9415 l -2.8753,6.9415 l -6.9415,2.8753 l -6.9415,-2.8753 l -2.8753,-6.9415 l 2.8753,-6.9415 l 6.9415,-2.8753 Z"/></g><g stroke-linejoin="miter" fill-opacity="0.0" fill="rgb(0,0,0)" stroke="rgb(0,0,0)" stroke-linecap="butt" stroke-miterlimit="10.0" stroke-opacity="1.0" stroke-width="0.4166666666666666"><path d="M 399.5811,233.0112 l 3.0426,7.3455 l -3.0426,7.3455 l -7.3455,3.0426 l -7.3455,-3.0426 l -3.0426,-7.3455 l 3.0426,-7.3455 l 7.3455,-3.0426 Z"/></g><g stroke-linejoin="miter" fill-opacity="0.0" fill="rgb(0,0,0)" stroke="rgb(0,0,0)" stroke-linecap="butt" stroke-miterlimit="10.0" stroke-opacity="1.0" stroke-width="0.4166666666666666"><path d="M 399.8850,232.2270 l 3.2197,7.7730 l -3.2197,7.7730 l -7.7730,3.2197 l -7.7730,-3.2197 l -3.2197,-7.7730 l 3.2197,-7.7730 l 7.7730,-3.2197 Z"/></g><g stroke-linejoin="miter" fill-opacity="0.0" fill="rgb(0,0,0)" stroke="rgb(0,0,0)" stroke-linecap="butt" stroke-miterlimit="10.0" stroke-opacity="1.0" stroke-width="0.4166666666666666"><path d="M 400.3295,231.3752 l 3.4071,8.2254 l -3.4071,8.2254 l -8.2254,3.4071 l -8.2254,-3.4071 l -3.4071,-8.2254 l 3.4071,-8.2254 l 8.2254,-3.4071 Z"/></g><g stroke-linejoin="miter" fill-opacity="0.0" fill="rgb(0,0,0)" stroke="rgb(0,0,0)" stroke-linecap="butt" stroke-miterlimit="10.0" stroke-opacity="1.0" stroke-width="0.4166666666666666"><path d="M 400.9310,230.4919 l 3.6054,8.7042 l -3.6054,8.7042 l -8.7042,3.6054 l -8.7042,-3.6054 l -3.6054,-8.7042 l 3.6054,-8.7042 l 8.7042,-3.6054 Z"/></g><g stroke-linejoin="miter" fill-opacity="0.0" fill="rgb(0,0,0)" stroke="rgb(0,0,0)" stroke-linecap="butt" stroke-miterlimit="10.0" stroke-opacity="1.0" stroke-width="0.4166666666666666"><path d="M 401.6934,229.6183 l 3.8152,9.2108 l -3.8152,9.2108 l -9.2108,3.8152 l -9.2108,-3.8152 l -3.8152,-9.2108 l 3.8152,-9.2108 l 9.2108,-3.8152 Z"/></g><g stroke-linejoin="miter" fill-opacity="0.0" fill="rgb(0,0,0)" stroke="rgb(0,0,0)" stroke-linecap="butt" stroke-miterlimit="10.0" stroke-opacity="1.0" stroke-width="0.4166666666666666"><path d="M 402.6069,228.7966 l 4.0373,9.7468 l -4.0373,9.7468 l -9.7468,4.0373 l -9.7468,-4.0373 l -4.0373,-9.7468 l 4.0373,-9.7468 l 9.7468,-4.0373 Z"/></g><g stroke-linejoin="miter" fill-opacity="0.0" fill="rgb(0,0,0)" stroke="rgb(0,0,0)" stroke-linecap="butt" stroke-miterlimit="10.0" stroke-opacity="1.0" stroke-width="0.4166666666666666"><path d="M 403.6474,228.0652 l 4.2722,10.3141 l -4.2722,10.3141 l -10.3141,4.2722 l -10.3141,-4.2722 l -4.2722,-10.3141 l 4.2722,-10.3141 l 10.3141,-4.2722 Z"/></g><g stroke-linejoin="miter" fill-opacity="0.0" fill="rgb(0,0,0)" stroke="rgb(0,0,0)" stroke-linecap="butt" stroke-miterlimit="10.0" stroke-opacity="1.0" stroke-width="0.4166666666666666"><path d="M 404.7777,227.4545 l 4.5209,10.9144 l -4.5209,10.9144 l -10.9144,4.5209 l -10.9144,-4.5209 l -4.5209,-10.9144 l 4.5209,-10.9144 l 10.9144,-4.5209 Z"/></g><g stroke-linejoin="miter" fill-opacity="0.0" fill="rgb(0,0,0)" stroke="rgb(0,0,0)" stroke-linecap="butt" stroke-miterlimit="10.0" stroke-opacity="1.0" stroke-width="0.4166666666666666"><path d="M 405.9497,226.9821 l 4.7840,11.5496 l -4.7840,11.5496 l -11.5496,4.7840 l -11.5496,-4.7840 l -4.7840,-11.5496 l 4.7840,-11.5496 l 11.5496,-4.7840 Z"/></g><g stroke-linejoin="miter" fill-opacity="0.0" fill="rgb(0,0,0)" stroke="rgb(0,0,0)" stroke-linecap="butt" stroke-miterlimit="10.0" stroke-opacity="1.0" stroke-width="0.4166666666666666"><path d="M 407.1089,226.6493 l 5.0624,12.2218 l -5.0624,12.2218 l -12.2218,5.0624 l -12.2218,-5.0624 l -5.0624,-12.2218 l 5.0624,-12.2218 l 12.2218,-5.0624 Z"/></g><g stroke-linejoin="miter" fill-opacity="0.0" fill="rgb(0,0,0)" stroke="rgb(0,0,0)" stroke-linecap="butt" stroke-miterlimit="10.0" stroke-opacity="1.0" stroke-width="0.4166666666666666"><path d="M 408.1993,226.4389 l 5.3571,12.9331 l -5.3571,12.9331 l -12.9331,5.3571 l -12.9331,-5.3571 l -5.3571,-12.9331 l 5.3571,-12.9331 l 12.9331,-5.3571 Z"/></g><g stroke-linejoin="miter" fill-opacity="0.0" fill="rgb(0,0,0)" stroke="rgb(0,0,0)" stroke-linecap="butt" stroke-miterlimit="10.0" stroke-opacity="1.0" stroke-width="0.4166666666666666"><path d="M 409.1697,226.3141 l 5.6689,13.6859 l -5.6689,13.6859 l -13.6859,5.6689 l -13.6859,-5.6689 l -5.6689,-13.6859 l 5.6689,-13.6859 l 13.6859,-5.6689 Z"/></g><g stroke-linejoin="miter" fill-opacity="0.0" fill="rgb(0,0,0)" stroke="rgb(0,0,0)" stroke-linecap="butt" stroke-miterlimit="10.0" stroke-opacity="1.0" stroke-width="0.4166666666666666"><path d="M 409.9800,226.2208 l 5.9988,14.4824 l -5.9988,14.4824 l -14.4824,5.9988 l -14.4824,-5.9988 l -5.9988,-14.4824 l 5.9988,-14.4824 l 14.4824,-5.9988 Z"/></g><g stroke-linejoin="miter" fill-opacity="0.0" fill="rgb(0,0,0)" stroke="rgb(0,0,0)" stroke-linecap="butt" stroke-miterlimit="10.0" stroke-opacity="1.0" stroke-width="0.4166666666666666"><path d="M 410.6069,226.0902 l 6.3479,15.3253 l -6.3479,15.3253 l -15.3253,6.3479 l -15.3253,-6.3479 l -6.3479,-15.3253 l 6.3479,-15.3253 l 15.3253,-6.3479 Z"/></g><g stroke-linejoin="miter" fill-opacity="0.0" fill="rgb(0,0,0)" stroke="rgb(0,0,0)" stroke-linecap="butt" stroke-miterlimit="10.0" stroke-opacity="1.0" stroke-width="0.4166666666666666"><path d="M 411.0484,225.8444 l 6.7174,16.2172 l -6.7174,16.2172 l -16.2172,6.7174 l -16.2172,-6.7174 l -6.7174,-16.2172 l 6.7174,-16.2172 l 16.2172,-6.7174 Z"/></g><g stroke-linejoin="miter" fill-opacity="0.0" fill="rgb(0,0,0)" stroke="rgb(0,0,0)" stroke-linecap="butt" stroke-miterlimit="10.0" stroke-opacity="1.0" stroke-width="0.4166666666666666"><path d="M 411.3277,225.4035 l 7.1084,17.1611 l -7.1084,17.1611 l -17.1611,7.1084 l -17.1611,-7.1084 l -7.1084,-17.1611 l 7.1084,-17.1611 l 17.1611,-7.1084 Z"/></g><g stroke-linejoin="miter" fill-opacity="0.0" fill="rgb(0,0,0)" stroke="rgb(0,0,0)" stroke-linecap="butt" stroke-miterlimit="10.0" stroke-opacity="1.0" stroke-width="0.4166666666666666"><path d="M 411.4932,224.6937 l 7.5221,18.1599 l -7.5221,18.1599 l -18.1599,7.5221 l -18.1599,-7.5221 l -7.5221,-18.1599 l 7.5221,-18.1599 l 18.1599,-7.5221 Z"/></g><g stroke-linejoin="miter" fill-opacity="0.0" fill="rgb(0,0,0)" stroke="rgb(0,0,0)" stroke-linecap="butt" stroke-miterlimit="10.0" stroke-opacity="1.0" stroke-width="0.4166666666666666"><path d="M 411.6170,223.6550 l 7.9599,19.2168 l -7.9599,19.2168 l -19.2168,7.9599 l -19.2168,-7.9599 l -7.9599,-19.2168 l 7.9599,-19.2168 l 19.2168,-7.9599 Z"/></g><g stroke-linejoin="miter" fill-opacity="0.0" fill="rgb(0,0,0)" stroke="rgb(0,0,0)" stroke-linecap="butt" stroke-miterlimit="10.0" stroke-opacity="1.0" stroke-width="0.4166666666666666"><path d="M 411.7904,222.2499 l 8.4231,20.3353 l -8.4231,20.3353 l -20.3353,8.4231 l -20.3353,-8.4231 l -8.4231,-20.3353 l 8.4231,-20.3353 l 20.3353,-8.4231 Z"/></g><g stroke-linejoin="miter" fill-opacity="0.0" fill="rgb(0,0,0)" stroke="rgb(0,0,0)" stroke-linecap="butt" stroke-miterlimit="10.0" stroke-opacity="1.0" stroke-width="0.4166666666666666"><path d="M 412.1166,220.4687 l 8.9134,21.5188 l -8.9134,21.5188 l -21.5188,8.9134 l -21.5188,-8.9134 l -8.9134,-21.5188 l 8.9134,-21.5188 l 21.5188,-8.9134 Z"/></g><g stroke-linejoin="miter" fill-opacity="0.0" fill="rgb(0,0,0)" stroke="rgb(0,0,0)" stroke-linecap="butt" stroke-miterlimit="10.0" stroke-opacity="1.0" stroke-width="0.4166666666666666"><path d="M 412.7015,218.3345 l 9.4321,22.7712 l -9.4321,22.7712 l -22.7712,9.4321 l -22.7712,-9.4321 l -9.4321,-22.7712 l 9.4321,-22.7712 l 22.7712,-9.4321 Z"/></g><g stroke-linejoin="miter" fill-opacity="0.0" fill="rgb(0,0,0)" stroke="rgb(0,0,0)" stroke-linecap="butt" stroke-miterlimit="10.0" stroke-opacity="1.0" stroke-width="0.4166666666666666"><path d="M 413.6435,215.9035 l 9.9811,24.0965 l -9.9811,24.0965 l -24.0965,9.9811 l -24.0965,-9.9811 l -9.9811,-24.0965 l 9.9811,-24.0965 l 24.0965,-9.9811 Z"/></g><g stroke-linejoin="miter" fill-opacity="0.0" fill="rgb(0,0,0)" stroke="rgb(0,0,0)" stroke-linecap="butt" stroke-miterlimit="10.0" stroke-opacity="1.0" stroke-width="0.4166666666666666"><path d="M 415.0216,213.2629 l 10.5620,25.4990 l -10.5620,25.4990 l -25.4990,10.5620 l -25.4990,-10.5620 l -10.5620,-25.4990 l 10.5620,-25.4990 l 25.4990,-10.5620 Z"/></g><g stroke-linejoin="miter" fill-opacity="0.0" fill="rgb(0,0,0)" stroke="rgb(0,0,0)" stroke-linecap="butt" stroke-miterlimit="10.0" stroke-opacity="1.0" stroke-width="0.4166666666666666"><path d="M 416.8862,210.5248 l 11.1767,26.9830 l -11.1767,26.9830 l -26.9830,11.1767 l -26.9830,-11.1767 l -11.1767,-26.9830 l 11.1767,-26.9830 l 26.9830,-11.1767 Z"/></g><g stroke-linejoin="miter" fill-opacity="0.0" fill="rgb(0,0,0)" stroke="rgb(0,0,0)" stroke-linecap="butt" stroke-miterlimit="10.0" stroke-opacity="1.0" stroke-width="0.4166666666666666"><path d="M 419.2496,207.8167 l 11.8272,28.5535 l -11.8272,28.5535 l -28.5535,11.8272 l -28.5535,-11.8272 l -11.8272,-28.5535 l 11.8272,-28.5535 l 28.5535,-11.8272 Z"/></g><g stroke-linejoin="miter" fill-opacity="0.0" fill="rgb(0,0,0)" stroke="rgb(0,0,0)" stroke-linecap="butt" stroke-miterlimit="10.0" stroke-opacity="1.0" stroke-width="0.4166666666666666"><path d="M 422.0815,205.2692 l 12.5156,30.2153 l -12.5156,30.2153 l -30.2153,12.5156 l -30.2153,-12.5156 l -12.5156,-30.2153 l 12.5156,-30.2153 l 30.2153,-12.5156 Z"/></g><g stroke-linejoin="miter" fill-opacity="0.0" fill="rgb(0,0,0)" stroke="rgb(0,0,0)" stroke-linecap="butt" stroke-miterlimit="10.0" stroke-opacity="1.0" stroke-width="0.4166666666666666"><path d="M 425.3072,203.0019 l 13.2440,31.9739 l -13.2440,31.9739 l -31.9739,13.2440 l -31.9739,-13.2440 l -13.2440,-31.9739 l 13.2440,-31.9739 l 31.9739,-13.2440 Z"/></g><g stroke-linejoin="miter" fill-opacity="0.0" fill="rgb(0,0,0)" stroke="rgb(0,0,0)" stroke-linecap="butt" stroke-miterlimit="10.0" stroke-opacity="1.0" stroke-width="0.4166666666666666"><path d="M 428.8111,201.1088 l 14.0148,33.8348 l -14.0148,33.8348 l -33.8348,14.0148 l -33.8348,-14.0148 l -14.0148,-33.8348 l 14.0148,-33.8348 l 33.8348,-14.0148 Z"/></g><g stroke-linejoin="miter" fill-opacity="0.0" fill="rgb(0,0,0)" stroke="rgb(0,0,0)" stroke-linecap="butt" stroke-miterlimit="10.0" stroke-opacity="1.0" stroke-width="0.4166666666666666"><path d="M 432.4443,199.6444 l 14.8305,35.8040 l -14.8305,35.8040 l -35.8040,14.8305 l -35.8040,-14.8305 l -14.8305,-35.8040 l 14.8305,-35.8040 l 35.8040,-14.8305 Z"/></g><g stroke-linejoin="miter" fill-opacity="0.0" fill="rgb(0,0,0)" stroke="rgb(0,0,0)" stroke-linecap="butt" stroke-miterlimit="10.0" stroke-opacity="1.0" stroke-width="0.4166666666666666"><path d="M 436.0377,198.6128 l 15.6937,37.8878 l -15.6937,37.8878 l -37.8878,15.6937 l -37.8878,-15.6937 l -15.6937,-37.8878 l 15.6937,-37.8878 l 37.8878,-15.6937 Z"/></g><g stroke-linejoin="miter" fill-opacity="0.0" fill="rgb(0,0,0)" stroke="rgb(0,0,0)" stroke-linecap="butt" stroke-miterlimit="10.0" stroke-opacity="1.0" stroke-width="0.4166666666666666"><path d="M 439.4179,197.9602 l 16.6070,40.0930 l -16.6070,40.0930 l -40.0930,16.6070 l -40.0930,-16.6070 l -16.6070,-40.0930 l 16.6070,-40.0930 l 40.0930,-16.6070 Z"/></g><g stroke-linejoin="miter" fill-opacity="0.0" fill="rgb(0,0,0)" stroke="rgb(0,0,0)" stroke-linecap="butt" stroke-miterlimit="10.0" stroke-opacity="1.0" stroke-width="0.4166666666666666"><path d="M 442.4264,197.5736 l 17.5736,42.4264 l -17.5736,42.4264 l -42.4264,17.5736 l -42.4264,-17.5736 l -17.5736,-42.4264 l 17.5736,-42.4264 l 42.4264,-17.5736 Z"/></g><g stroke-linejoin="miter" fill-opacity="1.0" fill="rgb(240,240,240)" stroke="rgb(0,0,0)" stroke-linecap="butt" stroke-miterlimit="10.0" stroke-opacity="1.0" stroke-width="0.4166666666666666"><path d="M 320.0000,320.0000 l -0.0000,-160.0000 h -160.0000 l -0.0000,160.0000 Z"/></g><g stroke-linejoin="miter" fill-opacity="0.0" fill="rgb(0,0,0)" stroke="rgb(0,0,0)" stroke-linecap="butt" stroke-miterlimit="10.0" stroke-opacity="1.0" stroke-width="0.4166666666666666"><path d="M 224.4472,248.5197 l -4.0425,-5.0691 l 5.8416,2.8132 l -6.4837,0.0000 l 5.8416,-2.8132 l -4.0425,5.0691 l 1.4428,-6.3211 Z"/></g><g stroke-linejoin="miter" fill-opacity="0.0" fill="rgb(0,0,0)" stroke="rgb(0,0,0)" stroke-linecap="butt" stroke-miterlimit="10.0" stroke-opacity="1.0" stroke-width="0.4166666666666666"><path d="M 224.4853,249.0112 l -4.2553,-5.3359 l 6.1490,2.9612 l -6.8249,0.0000 l 6.1490,-2.9612 l -4.2553,5.3359 l 1.5187,-6.6538 Z"/></g><g stroke-linejoin="miter" fill-opacity="0.0" fill="rgb(0,0,0)" stroke="rgb(0,0,0)" stroke-linecap="butt" stroke-miterlimit="10.0" stroke-opacity="1.0" stroke-width="0.4166666666666666"><path d="M 224.4482,249.5108 l -4.4792,-5.6168 l 6.4727,3.1171 l -7.1841,0.0000 l 6.4727,-3.1171 l -4.4792,5.6168 l 1.5986,-7.0040 Z"/></g><g stroke-linejoin="miter" fill-opacity="0.0" fill="rgb(0,0,0)" stroke="rgb(0,0,0)" stroke-linecap="butt" stroke-miterlimit="10.0" stroke-opacity="1.0" stroke-width="0.4166666666666666"><path d="M 224.3342,250.0005 l -4.7150,-5.9124 l 6.8133,3.2811 l -7.5622,0.0000 l 6.8133,-3.2811 l -4.7150,5.9124 l 1.6828,-7.3726 Z"/></g><g stroke-linejoin="miter" fill-opacity="0.0" fill="rgb(0,0,0)" stroke="rgb(0,0,0)" stroke-linecap="butt" stroke-miterlimit="10.0" stroke-opacity="1.0" stroke-width="0.4166666666666666"><path d="M 224.1455,250.4613 l -4.9631,-6.2236 l 7.1719,3.4538 l -7.9602,0.0000 l 7.1719,-3.4538 l -4.9631,6.2236 l 1.7713,-7.7607 Z"/></g><g stroke-linejoin="miter" fill-opacity="0.0" fill="rgb(0,0,0)" stroke="rgb(0,0,0)" stroke-linecap="butt" stroke-miterlimit="10.0" stroke-opacity="1.0" stroke-width="0.4166666666666666"><path d="M 223.8895,250.8740 l -5.2244,-6.5511 l 7.5494,3.6356 l -8.3792,0.0000 l 7.5494,-3.6356 l -5.2244,6.5511 l 1.8645,-8.1691 Z"/></g><g stroke-linejoin="miter" fill-opacity="0.0" fill="rgb(0,0,0)" stroke="rgb(0,0,0)" stroke-linecap="butt" stroke-miterlimit="10.0" stroke-opacity="1.0" stroke-width="0.4166666666666666"><path d="M 223.5778,251.2209 l -5.4993,-6.8959 l 7.9467,3.8270 l -8.8202,0.0000 l 7.9467,-3.8270 l -5.4993,6.8959 l 1.9627,-8.5991 Z"/></g><g stroke-linejoin="miter" fill-opacity="0.0" fill="rgb(0,0,0)" stroke="rgb(0,0,0)" stroke-linecap="butt" stroke-miterlimit="10.0" stroke-opacity="1.0" stroke-width="0.4166666666666666"><path d="M 223.2270,251.4863 l -5.7888,-7.2589 l 8.3650,4.0284 l -9.2844,0.0000 l 8.3650,-4.0284 l -5.7888,7.2589 l 2.0660,-9.0517 Z"/></g><g stroke-linejoin="miter" fill-opacity="0.0" fill="rgb(0,0,0)" stroke="rgb(0,0,0)" stroke-linecap="butt" stroke-miterlimit="10.0" stroke-opacity="1.0" stroke-width="0.4166666666666666"><path d="M 222.8578,251.6579 l -6.0934,-7.6409 l 8.8053,4.2404 l -9.7731,0.0000 l 8.8053,-4.2404 l -6.0934,7.6409 l 2.1747,-9.5281 Z"/></g><g stroke-linejoin="miter" fill-opacity="0.0" fill="rgb(0,0,0)" stroke="rgb(0,0,0)" stroke-linecap="butt" stroke-miterlimit="10.0" stroke-opacity="1.0" stroke-width="0.4166666666666666"><path d="M 222.4945,251.7281 l -6.4141,-8.0431 l 9.2687,4.4636 l -10.2875,0.0000 l 9.2687,-4.4636 l -6.4141,8.0431 l 2.2892,-10.0295 Z"/></g><g stroke-linejoin="miter" fill-opacity="0.0" fill="rgb(0,0,0)" stroke="rgb(0,0,0)" stroke-linecap="butt" stroke-miterlimit="10.0" stroke-opacity="1.0" stroke-width="0.4166666666666666"><path d="M 222.1639,251.6944 l -6.7517,-8.4664 l 9.7565,4.6985 l -10.8289,0.0000 l 9.7565,-4.6985 l -6.7517,8.4664 l 2.4097,-10.5574 Z"/></g><g stroke-linejoin="miter" fill-opacity="0.0" fill="rgb(0,0,0)" stroke="rgb(0,0,0)" stroke-linecap="butt" stroke-miterlimit="10.0" stroke-opacity="1.0" stroke-width="0.4166666666666666"><path d="M 221.8943,251.5608 l -7.1071,-8.9120 l 10.2700,4.9458 l -11.3989,0.0000 l 10.2700,-4.9458 l -7.1071,8.9120 l 2.5365,-11.1131 Z"/></g><g stroke-linejoin="miter" fill-opacity="0.0" fill="rgb(0,0,0)" stroke="rgb(0,0,0)" stroke-linecap="butt" stroke-miterlimit="10.0" stroke-opacity="1.0" stroke-width="0.4166666666666666"><path d="M 221.7139,251.3378 l -7.4811,-9.3810 l 10.8105,5.2061 l -11.9988,0.0000 l 10.8105,-5.2061 l -7.4811,9.3810 l 2.6700,-11.6980 Z"/></g><g stroke-linejoin="miter" fill-opacity="0.0" fill="rgb(0,0,0)" stroke="rgb(0,0,0)" stroke-linecap="butt" stroke-miterlimit="10.0" stroke-opacity="1.0" stroke-width="0.4166666666666666"><path d="M 221.6495,251.0428 l -7.8749,-9.8748 l 11.3795,5.4801 l -12.6303,0.0000 l 11.3795,-5.4801 l -7.8749,9.8748 l 2.8105,-12.3136 Z"/></g><g stroke-linejoin="miter" fill-opacity="0.0" fill="rgb(0,0,0)" stroke="rgb(0,0,0)" stroke-linecap="butt" stroke-miterlimit="10.0" stroke-opacity="1.0" stroke-width="0.4166666666666666"><path d="M 221.7246,250.6997 l -8.2893,-10.3945 l 11.9784,5.7685 l -13.2951,0.0000 l 11.9784,-5.7685 l -8.2893,10.3945 l 2.9584,-12.9617 Z"/></g><g stroke-linejoin="miter" fill-opacity="0.0" fill="rgb(0,0,0)" stroke="rgb(0,0,0)" stroke-linecap="butt" stroke-miterlimit="10.0" stroke-opacity="1.0" stroke-width="0.4166666666666666"><path d="M 221.9578,250.3387 l -8.7256,-10.9416 l 12.6089,6.0721 l -13.9948,0.0000 l 12.6089,-6.0721 l -8.7256,10.9416 l 3.1141,-13.6439 Z"/></g><g stroke-linejoin="miter" fill-opacity="0.0" fill="rgb(0,0,0)" stroke="rgb(0,0,0)" stroke-linecap="butt" stroke-miterlimit="10.0" stroke-opacity="1.0" stroke-width="0.4166666666666666"><path d="M 222.3616,249.9948 l -9.1849,-11.5175 l 13.2725,6.3917 l -14.7314,0.0000 l 13.2725,-6.3917 l -9.1849,11.5175 l 3.2780,-14.3620 Z"/></g><g stroke-linejoin="miter" fill-opacity="0.0" fill="rgb(0,0,0)" stroke="rgb(0,0,0)" stroke-linecap="butt" stroke-miterlimit="10.0" stroke-opacity="1.0" stroke-width="0.4166666666666666"><path d="M 222.9406,249.7072 l -9.6683,-12.1236 l 13.9711,6.7281 l -15.5067,0.0000 l 13.9711,-6.7281 l -9.6683,12.1236 l 3.4506,-15.1179 Z"/></g><g stroke-linejoin="miter" fill-opacity="0.0" fill="rgb(0,0,0)" stroke="rgb(0,0,0)" stroke-linecap="butt" stroke-miterlimit="10.0" stroke-opacity="1.0" stroke-width="0.4166666666666666"><path d="M 223.6906,249.5166 l -10.1771,-12.7617 l 14.7064,7.0822 l -16.3229,0.0000 l 14.7064,-7.0822 l -10.1771,12.7617 l 3.6322,-15.9136 Z"/></g><g stroke-linejoin="miter" fill-opacity="0.0" fill="rgb(0,0,0)" stroke="rgb(0,0,0)" stroke-linecap="butt" stroke-miterlimit="10.0" stroke-opacity="1.0" stroke-width="0.4166666666666666"><path d="M 224.5981,249.4641 l -10.7128,-13.4334 l 15.4804,7.4550 l -17.1820,0.0000 l 15.4804,-7.4550 l -10.7128,13.4334 l 3.8233,-16.7512 Z"/></g><g stroke-linejoin="miter" fill-opacity="0.0" fill="rgb(0,0,0)" stroke="rgb(0,0,0)" stroke-linecap="butt" stroke-miterlimit="10.0" stroke-opacity="1.0" stroke-width="0.4166666666666666"><path d="M 225.6397,249.5885 l -11.2766,-14.1404 l 16.2952,7.8473 l -18.0863,0.0000 l 16.2952,-7.8473 l -11.2766,14.1404 l 4.0246,-17.6328 Z"/></g><g stroke-linejoin="miter" fill-opacity="0.0" fill="rgb(0,0,0)" stroke="rgb(0,0,0)" stroke-linecap="butt" stroke-miterlimit="10.0" stroke-opacity="1.0" stroke-width="0.4166666666666666"><path d="M 226.7826,249.9241 l -11.8701,-14.8846 l 17.1528,8.2604 l -19.0382,0.0000 l 17.1528,-8.2604 l -11.8701,14.8846 l 4.2364,-18.5609 Z"/></g><g stroke-linejoin="miter" fill-opacity="0.0" fill="rgb(0,0,0)" stroke="rgb(0,0,0)" stroke-linecap="butt" stroke-miterlimit="10.0" stroke-opacity="1.0" stroke-width="0.4166666666666666"><path d="M 227.9856,250.4981 l -12.4949,-15.6680 l 18.0556,8.6951 l -20.0402,0.0000 l 18.0556,-8.6951 l -12.4949,15.6680 l 4.4594,-19.5377 Z"/></g><g stroke-linejoin="miter" fill-opacity="0.0" fill="rgb(0,0,0)" stroke="rgb(0,0,0)" stroke-linecap="butt" stroke-miterlimit="10.0" stroke-opacity="1.0" stroke-width="0.4166666666666666"><path d="M 229.2000,251.3290 l -13.1525,-16.4927 l 19.0059,9.1527 l -21.0949,0.0000 l 19.0059,-9.1527 l -13.1525,16.4927 l 4.6941,-20.5660 Z"/></g><g stroke-linejoin="miter" fill-opacity="0.0" fill="rgb(0,0,0)" stroke="rgb(0,0,0)" stroke-linecap="butt" stroke-miterlimit="10.0" stroke-opacity="1.0" stroke-width="0.4166666666666666"><path d="M 230.3720,252.4240 l -13.8447,-17.3607 l 20.0062,9.6345 l -22.2052,0.0000 l 20.0062,-9.6345 l -13.8447,17.3607 l 4.9411,-21.6485 Z"/></g><g stroke-linejoin="miter" fill-opacity="0.0" fill="rgb(0,0,0)" stroke="rgb(0,0,0)" stroke-linecap="butt" stroke-miterlimit="10.0" stroke-opacity="1.0" stroke-width="0.4166666666666666"><path d="M 231.4450,253.7780 l -14.5734,-18.2744 l 21.0591,10.1415 l -23.3739,0.0000 l 21.0591,-10.1415 l -14.5734,18.2744 l 5.2012,-22.7879 Z"/></g><g stroke-linejoin="miter" fill-opacity="0.0" fill="rgb(0,0,0)" stroke="rgb(0,0,0)" stroke-linecap="butt" stroke-miterlimit="10.0" stroke-opacity="1.0" stroke-width="0.4166666666666666"><path d="M 232.3623,255.3721 l -15.3404,-19.2363 l 22.1675,10.6753 l -24.6041,0.0000 l 22.1675,-10.6753 l -15.3404,19.2363 l 5.4749,-23.9872 Z"/></g><g stroke-linejoin="miter" fill-opacity="0.0" fill="rgb(0,0,0)" stroke="rgb(0,0,0)" stroke-linecap="butt" stroke-miterlimit="10.0" stroke-opacity="1.0" stroke-width="0.4166666666666666"><path d="M 233.0707,257.1739 l -16.1478,-20.2487 l 23.3342,11.2372 l -25.8990,0.0000 l 23.3342,-11.2372 l -16.1478,20.2487 l 5.7631,-25.2497 Z"/></g><g stroke-linejoin="miter" fill-opacity="0.0" fill="rgb(0,0,0)" stroke="rgb(0,0,0)" stroke-linecap="butt" stroke-miterlimit="10.0" stroke-opacity="1.0" stroke-width="0.4166666666666666"><path d="M 233.5234,259.1371 l -16.9977,-21.3144 l 24.5624,11.8286 l -27.2622,0.0000 l 24.5624,-11.8286 l -16.9977,21.3144 l 6.0664,-26.5786 Z"/></g><g stroke-linejoin="miter" fill-opacity="0.0" fill="rgb(0,0,0)" stroke="rgb(0,0,0)" stroke-linecap="butt" stroke-miterlimit="10.0" stroke-opacity="1.0" stroke-width="0.4166666666666666"><path d="M 233.6836,261.2034 l -17.8923,-22.4362 l 25.8551,12.4512 l -28.6970,0.0000 l 25.8551,-12.4512 l -17.8923,22.4362 l 6.3857,-27.9775 Z"/></g><g stroke-linejoin="miter" fill-opacity="0.0" fill="rgb(0,0,0)" stroke="rgb(0,0,0)" stroke-linecap="butt" stroke-miterlimit="10.0" stroke-opacity="1.0" stroke-width="0.4166666666666666"><path d="M 233.5278,263.3043 l -18.8340,-23.6171 l 27.2159,13.1065 l -30.2074,0.0000 l 27.2159,-13.1065 l -18.8340,23.6171 l 6.7218,-29.4500 Z"/></g><g stroke-linejoin="miter" fill-opacity="0.0" fill="rgb(0,0,0)" stroke="rgb(0,0,0)" stroke-linecap="butt" stroke-miterlimit="10.0" stroke-opacity="1.0" stroke-width="0.4166666666666666"><path d="M 233.0482,265.3634 l -19.8252,-24.8601 l 28.6483,13.7963 l -31.7972,0.0000 l 28.6483,-13.7963 l -19.8252,24.8601 l 7.0755,-31.0000 Z"/></g><g stroke-linejoin="miter" fill-opacity="0.0" fill="rgb(0,0,0)" stroke="rgb(0,0,0)" stroke-linecap="butt" stroke-miterlimit="10.0" stroke-opacity="1.0" stroke-width="0.4166666666666666"><path d="M 232.2550,267.3007 l -20.8687,-26.1685 l 30.1561,14.5224 l -33.4708,0.0000 l 30.1561,-14.5224 l -20.8687,26.1685 l 7.4479,-32.6316 Z"/></g><g stroke-linejoin="miter" fill-opacity="0.0" fill="rgb(0,0,0)" stroke="rgb(0,0,0)" stroke-linecap="butt" stroke-miterlimit="10.0" stroke-opacity="1.0" stroke-width="0.4166666666666666"><path d="M 231.1782,269.0363 l -21.9670,-27.5458 l 31.7433,15.2868 l -35.2324,0.0000 l 31.7433,-15.2868 l -21.9670,27.5458 l 7.8399,-34.3490 Z"/></g><g stroke-linejoin="miter" fill-opacity="0.0" fill="rgb(0,0,0)" stroke="rgb(0,0,0)" stroke-linecap="butt" stroke-miterlimit="10.0" stroke-opacity="1.0" stroke-width="0.4166666666666666"><path d="M 229.8677,270.4949 l -23.1232,-28.9956 l 33.4140,16.0913 l -37.0867,0.0000 l 33.4140,-16.0913 l -23.1232,28.9956 l 8.2526,-36.1569 Z"/></g><g stroke-linejoin="miter" fill-opacity="0.0" fill="rgb(0,0,0)" stroke="rgb(0,0,0)" stroke-linecap="butt" stroke-miterlimit="10.0" stroke-opacity="1.0" stroke-width="0.4166666666666666"><path d="M 228.3926,271.6107 l -24.3402,-30.5217 l 35.1726,16.9382 l -39.0387,0.0000 l 35.1726,-16.9382 l -24.3402,30.5217 l 8.6869,-38.0599 Z"/></g><g stroke-linejoin="miter" fill-opacity="0.0" fill="rgb(0,0,0)" stroke="rgb(0,0,0)" stroke-linecap="butt" stroke-miterlimit="10.0" stroke-opacity="1.0" stroke-width="0.4166666666666666"><path d="M 226.8403,272.3324 l -25.6213,-32.1281 l 37.0238,17.8297 l -41.0933,0.0000 l 37.0238,-17.8297 l -25.6213,32.1281 l 9.1441,-40.0630 Z"/></g><g stroke-linejoin="miter" fill-opacity="0.0" fill="rgb(0,0,0)" stroke="rgb(0,0,0)" stroke-linecap="butt" stroke-miterlimit="10.0" stroke-opacity="1.0" stroke-width="0.4166666666666666"><path d="M 225.3126,272.6273 l -26.9698,-33.8190 l 38.9724,18.7681 l -43.2561,0.0000 l 38.9724,-18.7681 l -26.9698,33.8190 l 9.6254,-42.1716 Z"/></g><g stroke-linejoin="miter" fill-opacity="0.0" fill="rgb(0,0,0)" stroke="rgb(0,0,0)" stroke-linecap="butt" stroke-miterlimit="10.0" stroke-opacity="1.0" stroke-width="0.4166666666666666"><path d="M 223.9226,272.4859 l -28.3892,-35.5990 l 41.0236,19.7559 l -45.5328,0.0000 l 41.0236,-19.7559 l -28.3892,35.5990 l 10.1320,-44.3912 Z"/></g><g stroke-linejoin="miter" fill-opacity="0.0" fill="rgb(0,0,0)" stroke="rgb(0,0,0)" stroke-linecap="butt" stroke-miterlimit="10.0" stroke-opacity="1.0" stroke-width="0.4166666666666666"><path d="M 222.7889,271.9242 l -29.8834,-37.4726 l 43.1827,20.7957 l -47.9292,0.0000 l 43.1827,-20.7957 l -29.8834,37.4726 l 10.6653,-46.7275 Z"/></g><g stroke-linejoin="miter" fill-opacity="0.0" fill="rgb(0,0,0)" stroke="rgb(0,0,0)" stroke-linecap="butt" stroke-miterlimit="10.0" stroke-opacity="1.0" stroke-width="0.4166666666666666"><path d="M 222.0306,270.9865 l -31.4562,-39.4448 l 45.4555,21.8902 l -50.4518,0.0000 l 45.4555,-21.8902 l -31.4562,39.4448 l 11.2266,-49.1869 Z"/></g><g stroke-linejoin="miter" fill-opacity="0.0" fill="rgb(0,0,0)" stroke="rgb(0,0,0)" stroke-linecap="butt" stroke-miterlimit="10.0" stroke-opacity="1.0" stroke-width="0.4166666666666666"><path d="M 221.7598,269.7459 l -33.1118,-41.5209 l 47.8479,23.0423 l -53.1072,0.0000 l 47.8479,-23.0423 l -33.1118,41.5209 l 11.8175,-51.7757 Z"/></g><g stroke-linejoin="miter" fill-opacity="0.0" fill="rgb(0,0,0)" stroke="rgb(0,0,0)" stroke-linecap="butt" stroke-miterlimit="10.0" stroke-opacity="1.0" stroke-width="0.4166666666666666"><path d="M 222.0755,268.3033 l -34.8545,-43.7062 l 50.3662,24.2551 l -55.9023,0.0000 l 50.3662,-24.2551 l -34.8545,43.7062 l 12.4394,-54.5007 Z"/></g><g stroke-linejoin="miter" fill-opacity="0.0" fill="rgb(0,0,0)" stroke="rgb(0,0,0)" stroke-linecap="butt" stroke-miterlimit="10.0" stroke-opacity="1.0" stroke-width="0.4166666666666666"><path d="M 223.0563,266.7852 l -36.6890,-46.0065 l 53.0171,25.5317 l -58.8445,0.0000 l 53.0171,-25.5317 l -36.6890,46.0065 l 13.0941,-57.3692 Z"/></g><g stroke-linejoin="miter" fill-opacity="0.0" fill="rgb(0,0,0)" stroke="rgb(0,0,0)" stroke-linecap="butt" stroke-miterlimit="10.0" stroke-opacity="1.0" stroke-width="0.4166666666666666"><path d="M 224.7541,265.3395 l -38.6200,-48.4279 l 55.8075,26.8755 l -61.9416,0.0000 l 55.8075,-26.8755 l -38.6200,48.4279 l 13.7833,-60.3886 Z"/></g><g stroke-linejoin="miter" fill-opacity="0.0" fill="rgb(0,0,0)" stroke="rgb(0,0,0)" stroke-linecap="butt" stroke-miterlimit="10.0" stroke-opacity="1.0" stroke-width="0.4166666666666666"><path d="M 227.1885,264.1299 l -40.6526,-50.9767 l 58.7447,28.2900 l -65.2017,0.0000 l 58.7447,-28.2900 l -40.6526,50.9767 l 14.5087,-63.5669 Z"/></g><g stroke-linejoin="miter" fill-opacity="0.0" fill="rgb(0,0,0)" stroke="rgb(0,0,0)" stroke-linecap="butt" stroke-miterlimit="10.0" stroke-opacity="1.0" stroke-width="0.4166666666666666"><path d="M 230.3421,263.3286 l -42.7922,-53.6597 l 61.8365,29.7789 l -68.6334,0.0000 l 61.8365,-29.7789 l -42.7922,53.6597 l 15.2724,-66.9126 Z"/></g><g stroke-linejoin="miter" fill-opacity="0.0" fill="rgb(0,0,0)" stroke="rgb(0,0,0)" stroke-linecap="butt" stroke-miterlimit="10.0" stroke-opacity="1.0" stroke-width="0.4166666666666666"><path d="M 234.1578,263.1080 l -45.0444,-56.4839 l 65.0911,31.3462 l -72.2456,0.0000 l 65.0911,-31.3462 l -45.0444,56.4839 l 16.0762,-70.4343 Z"/></g><g stroke-linejoin="miter" fill-opacity="0.0" fill="rgb(0,0,0)" stroke="rgb(0,0,0)" stroke-linecap="butt" stroke-miterlimit="10.0" stroke-opacity="1.0" stroke-width="0.4166666666666666"><path d="M 238.5374,263.6311 l -47.4152,-59.4568 l 68.5169,32.9960 l -76.0480,0.0000 l 68.5169,-32.9960 l -47.4152,59.4568 l 16.9223,-74.1414 Z"/></g><g stroke-linejoin="miter" fill-opacity="0.0" fill="rgb(0,0,0)" stroke="rgb(0,0,0)" stroke-linecap="butt" stroke-miterlimit="10.0" stroke-opacity="1.0" stroke-width="0.4166666666666666"><path d="M 243.3432,265.0419 l -49.9107,-62.5861 l 72.1231,34.7326 l -80.0506,0.0000 l 72.1231,-34.7326 l -49.9107,62.5861 l 17.8129,-78.0435 Z"/></g><g stroke-linejoin="miter" fill-opacity="0.0" fill="rgb(0,0,0)" stroke="rgb(0,0,0)" stroke-linecap="butt" stroke-miterlimit="10.0" stroke-opacity="1.0" stroke-width="0.4166666666666666"><path d="M 248.4014,267.4557 l -52.5376,-65.8801 l 75.9190,36.5607 l -84.2638,0.0000 l 75.9190,-36.5607 l -52.5376,65.8801 l 18.7504,-82.1511 Z"/></g><g stroke-linejoin="miter" fill-opacity="0.0" fill="rgb(0,0,0)" stroke="rgb(0,0,0)" stroke-linecap="butt" stroke-miterlimit="10.0" stroke-opacity="1.0" stroke-width="0.4166666666666666"><path d="M 253.5077,270.9493 l -55.3027,-69.3474 l 79.9148,38.4849 l -88.6987,0.0000 l 79.9148,-38.4849 l -55.3027,69.3474 l 19.7373,-86.4748 Z"/></g><g stroke-linejoin="miter" fill-opacity="0.0" fill="rgb(0,0,0)" stroke="rgb(0,0,0)" stroke-linecap="butt" stroke-miterlimit="10.0" stroke-opacity="1.0" stroke-width="0.4166666666666666"><path d="M 258.4358,275.5537 l -58.2134,-72.9973 l 84.1208,40.5104 l -93.3670,0.0000 l 84.1208,-40.5104 l -58.2134,72.9973 l 20.7761,-91.0261 Z"/></g><g stroke-linejoin="miter" fill-opacity="0.0" fill="rgb(0,0,0)" stroke="rgb(0,0,0)" stroke-linecap="butt" stroke-miterlimit="10.0" stroke-opacity="1.0" stroke-width="0.4166666666666666"><path d="M 262.9473,281.2467 l -61.2773,-76.8393 l 88.5482,42.6426 l -98.2811,0.0000 l 88.5482,-42.6426 l -61.2773,76.8393 l 21.8696,-95.8170 Z"/></g><g stroke-linejoin="miter" fill-opacity="0.0" fill="rgb(0,0,0)" stroke="rgb(0,0,0)" stroke-linecap="butt" stroke-miterlimit="10.0" stroke-opacity="1.0" stroke-width="0.4166666666666666"><path d="M 266.8044,287.9497 l -64.5024,-80.8834 l 93.2086,44.8869 l -103.4538,0.0000 l 93.2086,-44.8869 l -64.5024,80.8834 l 23.0206,-100.8600 Z"/></g><g stroke-linejoin="miter" fill-opacity="0.0" fill="rgb(0,0,0)" stroke="rgb(0,0,0)" stroke-linecap="butt" stroke-miterlimit="10.0" stroke-opacity="1.0" stroke-width="0.4166666666666666"><path d="M 269.7829,295.5255 l -67.8972,-85.1405 l 98.1144,47.2494 l -108.8987,0.0000 l 98.1144,-47.2494 l -67.8972,85.1405 l 24.2322,-106.1684 Z"/></g><g stroke-linejoin="miter" fill-opacity="1.0" fill="rgb(240,240,240)" stroke="rgb(0,0,0)" stroke-linecap="butt" stroke-miterlimit="10.0" stroke-opacity="1.0" stroke-width="0.4166666666666666"><path d="M 160.0000,320.0000 l -0.0000,-160.0000 h -160.0000 l -0.0000,160.0000 Z"/></g><g stroke-linejoin="miter" fill-opacity="0.0" fill="rgb(0,0,0)" stroke="rgb(0,0,0)" stroke-linecap="butt" stroke-miterlimit="10.0" stroke-opacity="1.0" stroke-width="0.4166666666666666"><path d="M 80.6733,244.8033 l -2.0049,-8.7843 l 3.2918,8.3873 l -4.5051,-7.8030 l 5.6177,7.0444 l -6.6049,-6.1285 l 7.4445,5.0756 l -8.1179,-3.9094 l 8.6099,2.6558 l -8.9095,-1.3429 l 9.0102,-0.0000 l -8.9095,1.3429 l 8.6099,-2.6558 l -8.1179,3.9094 l 7.4445,-5.0756 l -6.6049,6.1285 l 5.6177,-7.0444 l -4.5051,7.8030 l 3.2918,-8.3873 l -2.0049,8.7843 l 0.6733,-8.9850 Z"/></g><g stroke-linejoin="miter" fill-opacity="0.0" fill="rgb(0,0,0)" stroke="rgb(0,0,0)" stroke-linecap="butt" stroke-miterlimit="10.0" stroke-opacity="1.0" stroke-width="0.4166666666666666"><path d="M 80.8978,246.2924 l -2.6733,-11.7123 l 4.3890,11.1831 l -6.0068,-10.4040 l 7.4903,9.3926 l -8.8066,-8.1713 l 9.9261,6.7675 l -10.8238,-5.2125 l 11.4798,3.5411 l -11.8794,-1.7905 l 12.0135,-0.0000 l -11.8794,1.7905 l 11.4798,-3.5411 l -10.8238,5.2125 l 9.9261,-6.7675 l -8.8066,8.1713 l 7.4903,-9.3926 l -6.0068,10.4040 l 4.3890,-11.1831 l -2.6733,11.7123 l 0.8978,-11.9800 Z"/></g><g stroke-linejoin="miter" fill-opacity="0.0" fill="rgb(0,0,0)" stroke="rgb(0,0,0)" stroke-linecap="butt" stroke-miterlimit="10.0" stroke-opacity="1.0" stroke-width="0.4166666666666666"><path d="M 81.1970,248.2778 l -3.5644,-15.6165 l 5.8521,14.9108 l -8.0090,-13.8721 l 9.9871,12.5234 l -11.7421,-10.8951 l 13.2347,9.0233 l -14.4318,-6.9500 l 15.3064,4.7214 l -15.8392,-2.3874 l 16.0181,-0.0000 l -15.8392,2.3874 l 15.3064,-4.7214 l -14.4318,6.9500 l 13.2347,-9.0233 l -11.7421,10.8951 l 9.9871,-12.5234 l -8.0090,13.8721 l 5.8521,-14.9108 l -3.5644,15.6165 l 1.1970,-15.9733 Z"/></g><g stroke-linejoin="miter" fill-opacity="0.0" fill="rgb(0,0,0)" stroke="rgb(0,0,0)" stroke-linecap="butt" stroke-miterlimit="10.0" stroke-opacity="1.0" stroke-width="0.4166666666666666"><path d="M 81.5960,250.9251 l -4.7525,-20.8219 l 7.8027,19.8811 l -10.6787,-18.4961 l 13.3161,16.6979 l -15.6561,-14.5267 l 17.6463,12.0311 l -19.2424,-9.2666 l 20.4086,6.2952 l -21.1189,-3.1832 l 21.3574,-0.0000 l -21.1189,3.1832 l 20.4086,-6.2952 l -19.2424,9.2666 l 17.6463,-12.0311 l -15.6561,14.5267 l 13.3161,-16.6979 l -10.6787,18.4961 l 7.8027,-19.8811 l -4.7525,20.8219 l 1.5960,-21.2977 Z"/></g><g stroke-linejoin="miter" fill-opacity="0.0" fill="rgb(0,0,0)" stroke="rgb(0,0,0)" stroke-linecap="butt" stroke-miterlimit="10.0" stroke-opacity="1.0" stroke-width="0.4166666666666666"><path d="M 82.1281,254.4547 l -6.3366,-27.7626 l 10.4037,26.5081 l -14.2383,-24.6614 l 17.7548,22.2639 l -20.8748,-19.3690 l 23.5284,16.0414 l -25.6565,-12.3555 l 27.2114,8.3936 l -28.1585,-4.2442 l 28.4766,-0.0000 l -28.1585,4.2442 l 27.2114,-8.3936 l -25.6565,12.3555 l 23.5284,-16.0414 l -20.8748,19.3690 l 17.7548,-22.2639 l -14.2383,24.6614 l 10.4037,-26.5081 l -6.3366,27.7626 l 2.1281,-28.3969 Z"/></g><g stroke-linejoin="miter" fill-opacity="0.0" fill="rgb(0,0,0)" stroke="rgb(0,0,0)" stroke-linecap="butt" stroke-miterlimit="10.0" stroke-opacity="1.0" stroke-width="0.4166666666666666"><path d="M 82.8374,259.1610 l -8.4488,-37.0168 l 13.8715,35.3441 l -18.9844,-32.8819 l 23.6731,29.6852 l -27.8331,-25.8253 l 31.3713,21.3886 l -34.2087,-16.4740 l 36.2819,11.1915 l -37.5447,-5.6589 l 37.9687,-0.0000 l -37.5447,5.6589 l 36.2819,-11.1915 l -34.2087,16.4740 l 31.3713,-21.3886 l -27.8331,25.8253 l 23.6731,-29.6852 l -18.9844,32.8819 l 13.8715,-35.3441 l -8.4488,37.0168 l 2.8374,-37.8626 Z"/></g><g stroke-linejoin="miter" fill-opacity="0.0" fill="rgb(0,0,0)" stroke="rgb(0,0,0)" stroke-linecap="butt" stroke-miterlimit="10.0" stroke-opacity="1.0" stroke-width="0.4166666666666666"><path d="M 83.7832,265.4360 l -11.2651,-49.3557 l 18.4954,47.1255 l -25.3125,-43.8425 l 31.5642,39.5802 l -37.1108,-34.4337 l 41.8283,28.5181 l -45.6115,-21.9654 l 48.3759,14.9220 l -50.0596,-7.5453 l 50.6250,-0.0000 l -50.0596,7.5453 l 48.3759,-14.9220 l -45.6115,21.9654 l 41.8283,-28.5181 l -37.1108,34.4337 l 31.5642,-39.5802 l -25.3125,43.8425 l 18.4954,-47.1255 l -11.2651,49.3557 l 3.7832,-50.4834 Z"/></g><g stroke-linejoin="miter" fill-opacity="0.0" fill="rgb(0,0,0)" stroke="rgb(0,0,0)" stroke-linecap="butt" stroke-miterlimit="10.0" stroke-opacity="1.0" stroke-width="0.4166666666666666"><path d="M 85.0443,273.8026 l -15.0202,-65.8076 l 24.6605,62.8340 l -33.7500,-58.4567 l 42.0856,52.7736 l -49.4810,-45.9117 l 55.7711,38.0241 l -60.8154,-29.2872 l 64.5012,19.8960 l -66.7461,-10.0604 l 67.5000,-0.0000 l -66.7461,10.0604 l 64.5012,-19.8960 l -60.8154,29.2872 l 55.7711,-38.0241 l -49.4810,45.9117 l 42.0856,-52.7736 l -33.7500,58.4567 l 24.6605,-62.8340 l -15.0202,65.8076 l 5.0443,-67.3113 Z"/></g><g stroke-linejoin="miter" fill-opacity="0.0" fill="rgb(0,0,0)" stroke="rgb(0,0,0)" stroke-linecap="butt" stroke-miterlimit="10.0" stroke-opacity="1.0" stroke-width="0.4166666666666666"><path d="M 86.7257,284.9582 l -20.0269,-87.7435 l 32.8807,83.7786 l -45.0000,-77.9423 l 56.1141,70.3648 l -65.9747,-61.2155 l 74.3615,50.6988 l -81.0872,-39.0495 l 86.0016,26.5280 l -88.9948,-13.4138 l 90.0000,-0.0000 l -88.9948,13.4138 l 86.0016,-26.5280 l -81.0872,39.0495 l 74.3615,-50.6988 l -65.9747,61.2155 l 56.1141,-70.3648 l -45.0000,77.9423 l 32.8807,-83.7786 l -20.0269,87.7435 l 6.7257,-89.7483 Z"/></g><g stroke-linejoin="miter" fill-opacity="0.0" fill="rgb(0,0,0)" stroke="rgb(0,0,0)" stroke-linecap="butt" stroke-miterlimit="10.0" stroke-opacity="1.0" stroke-width="0.4166666666666666"><path d="M 88.9676,299.8322 l -26.7025,-116.9913 l 43.8409,111.7048 l -60.0000,-103.9230 l 74.8188,93.8198 l -87.9662,-81.6207 l 99.1487,67.5984 l -108.1163,-52.0660 l 114.6687,35.3706 l -118.6597,-17.8851 l 120.0000,-0.0000 l -118.6597,17.8851 l 114.6687,-35.3706 l -108.1163,52.0660 l 99.1487,-67.5984 l -87.9662,81.6207 l 74.8188,-93.8198 l -60.0000,103.9230 l 43.8409,-111.7048 l -26.7025,116.9913 l 8.9676,-119.6645 Z"/></g><g stroke-linejoin="miter" fill-opacity="1.0" fill="rgb(240,240,240)" stroke="rgb(0,0,0)" stroke-linecap="butt" stroke-miterlimit="10.0" stroke-opacity="1.0" stroke-width="0.4166666666666666"><path d="M 480.0000,160.0000 l -0.0000,-160.0000 h -160.0000 l -0.0000,160.0000 Z"/></g><g stroke-linejoin="miter" fill-opacity="0.0" fill="rgb(0,0,0)" stroke="rgb(0,0,0)" stroke-linecap="butt" stroke-miterlimit="10.0" stroke-opacity="1.0" stroke-width="0.4166666666666666"><path d="M 405.2563,86.2642 l -13.3093,-7.6841 l 15.1348,-2.6687 l -9.8785,11.7728 l -0.0000,-15.3683 l 9.8785,11.7728 l -15.1348,-2.6687 l 13.3093,-7.6841 l -5.2563,14.4415 l -5.2563,-14.4415 l 13.3093,7.6841 l -15.1348,2.6687 l 9.8785,-11.7728 l 0.0000,15.3683 l -9.8785,-11.7728 l 15.1348,2.6687 l -13.3093,7.6841 l 5.2563,-14.4415 Z"/></g><g stroke-linejoin="miter" fill-opacity="0.0" fill="rgb(0,0,0)" stroke="rgb(0,0,0)" stroke-linecap="butt" stroke-miterlimit="10.0" stroke-opacity="1.0" stroke-width="0.4166666666666666"><path d="M 406.5703,87.8302 l -16.6367,-9.6052 l 18.9185,-3.3358 l -12.3482,14.7160 l -0.0000,-19.2104 l 12.3482,14.7160 l -18.9185,-3.3358 l 16.6367,-9.6052 l -6.5703,18.0518 l -6.5703,-18.0518 l 16.6367,9.6052 l -18.9185,3.3358 l 12.3482,-14.7160 l 0.0000,19.2104 l -12.3482,-14.7160 l 18.9185,3.3358 l -16.6367,9.6052 l 6.5703,-18.0518 Z"/></g><g stroke-linejoin="miter" fill-opacity="0.0" fill="rgb(0,0,0)" stroke="rgb(0,0,0)" stroke-linecap="butt" stroke-miterlimit="10.0" stroke-opacity="1.0" stroke-width="0.4166666666666666"><path d="M 408.2129,89.7878 l -20.7958,-12.0065 l 23.6481,-4.1698 l -15.4352,18.3950 l -0.0000,-24.0129 l 15.4352,18.3950 l -23.6481,-4.1698 l 20.7958,-12.0065 l -8.2129,22.5648 l -8.2129,-22.5648 l 20.7958,12.0065 l -23.6481,4.1698 l 15.4352,-18.3950 l 0.0000,24.0129 l -15.4352,-18.3950 l 23.6481,4.1698 l -20.7958,12.0065 l 8.2129,-22.5648 Z"/></g><g stroke-linejoin="miter" fill-opacity="0.0" fill="rgb(0,0,0)" stroke="rgb(0,0,0)" stroke-linecap="butt" stroke-miterlimit="10.0" stroke-opacity="1.0" stroke-width="0.4166666666666666"><path d="M 410.2661,92.2347 l -25.9948,-15.0081 l 29.5602,-5.2123 l -19.2940,22.9937 l -0.0000,-30.0162 l 19.2940,22.9937 l -29.5602,-5.2123 l 25.9948,-15.0081 l -10.2661,28.2060 l -10.2661,-28.2060 l 25.9948,15.0081 l -29.5602,5.2123 l 19.2940,-22.9937 l 0.0000,30.0162 l -19.2940,-22.9937 l 29.5602,5.2123 l -25.9948,15.0081 l 10.2661,-28.2060 Z"/></g><g stroke-linejoin="miter" fill-opacity="0.0" fill="rgb(0,0,0)" stroke="rgb(0,0,0)" stroke-linecap="butt" stroke-miterlimit="10.0" stroke-opacity="1.0" stroke-width="0.4166666666666666"><path d="M 412.8327,95.2934 l -32.4935,-18.7601 l 36.9502,-6.5153 l -24.1175,28.7422 l -0.0000,-37.5202 l 24.1175,28.7422 l -36.9502,-6.5153 l 32.4935,-18.7601 l -12.8327,35.2575 l -12.8327,-35.2575 l 32.4935,18.7601 l -36.9502,6.5153 l 24.1175,-28.7422 l 0.0000,37.5202 l -24.1175,-28.7422 l 36.9502,6.5153 l -32.4935,18.7601 l 12.8327,-35.2575 Z"/></g><g stroke-linejoin="miter" fill-opacity="0.0" fill="rgb(0,0,0)" stroke="rgb(0,0,0)" stroke-linecap="butt" stroke-miterlimit="10.0" stroke-opacity="1.0" stroke-width="0.4166666666666666"><path d="M 416.0408,99.1167 l -40.6168,-23.4501 l 46.1878,-8.1442 l -30.1469,35.9277 l -0.0000,-46.9003 l 30.1469,35.9277 l -46.1878,-8.1442 l 40.6168,-23.4501 l -16.0408,44.0719 l -16.0408,-44.0719 l 40.6168,23.4501 l -46.1878,8.1442 l 30.1469,-35.9277 l 0.0000,46.9003 l -30.1469,-35.9277 l 46.1878,8.1442 l -40.6168,23.4501 l 16.0408,-44.0719 Z"/></g><g stroke-linejoin="miter" fill-opacity="0.0" fill="rgb(0,0,0)" stroke="rgb(0,0,0)" stroke-linecap="butt" stroke-miterlimit="10.0" stroke-opacity="1.0" stroke-width="0.4166666666666666"><path d="M 420.0511,103.8959 l -50.7711,-29.3127 l 57.7347,-10.1802 l -37.6837,44.9096 l -0.0000,-58.6254 l 37.6837,44.9096 l -57.7347,-10.1802 l 50.7711,-29.3127 l -20.0511,55.0898 l -20.0511,-55.0898 l 50.7711,29.3127 l -57.7347,10.1802 l 37.6837,-44.9096 l 0.0000,58.6254 l -37.6837,-44.9096 l 57.7347,10.1802 l -50.7711,29.3127 l 20.0511,-55.0898 Z"/></g><g stroke-linejoin="miter" fill-opacity="0.0" fill="rgb(0,0,0)" stroke="rgb(0,0,0)" stroke-linecap="butt" stroke-miterlimit="10.0" stroke-opacity="1.0" stroke-width="0.4166666666666666"><path d="M 425.0638,109.8699 l -63.4638,-36.6409 l 72.1684,-12.7252 l -47.1046,56.1370 l -0.0000,-73.2817 l 47.1046,56.1370 l -72.1684,-12.7252 l 63.4638,-36.6409 l -25.0638,68.8623 l -25.0638,-68.8623 l 63.4638,36.6409 l -72.1684,12.7252 l 47.1046,-56.1370 l 0.0000,73.2817 l -47.1046,-56.1370 l 72.1684,12.7252 l -63.4638,36.6409 l 25.0638,-68.8623 Z"/></g><g stroke-linejoin="miter" fill-opacity="0.0" fill="rgb(0,0,0)" stroke="rgb(0,0,0)" stroke-linecap="butt" stroke-miterlimit="10.0" stroke-opacity="1.0" stroke-width="0.4166666666666666"><path d="M 431.3298,117.3374 l -79.3298,-45.8011 l 90.2105,-15.9065 l -58.8807,70.1713 l -0.0000,-91.6021 l 58.8807,70.1713 l -90.2105,-15.9065 l 79.3298,-45.8011 l -31.3298,86.0778 l -31.3298,-86.0778 l 79.3298,45.8011 l -90.2105,15.9065 l 58.8807,-70.1713 l 0.0000,91.6021 l -58.8807,-70.1713 l 90.2105,15.9065 l -79.3298,45.8011 l 31.3298,-86.0778 Z"/></g><g stroke-linejoin="miter" fill-opacity="0.0" fill="rgb(0,0,0)" stroke="rgb(0,0,0)" stroke-linecap="butt" stroke-miterlimit="10.0" stroke-opacity="1.0" stroke-width="0.4166666666666666"><path d="M 439.1622,126.6717 l -99.1622,-57.2513 l 112.7631,-19.8832 l -73.6009,87.7141 l -0.0000,-114.5027 l 73.6009,87.7141 l -112.7631,-19.8832 l 99.1622,-57.2513 l -39.1622,107.5973 l -39.1622,-107.5973 l 99.1622,57.2513 l -112.7631,19.8832 l 73.6009,-87.7141 l 0.0000,114.5027 l -73.6009,-87.7141 l 112.7631,19.8832 l -99.1622,57.2513 l 39.1622,-107.5973 Z"/></g><g stroke-linejoin="miter" fill-opacity="1.0" fill="rgb(240,240,240)" stroke="rgb(0,0,0)" stroke-linecap="butt" stroke-miterlimit="10.0" stroke-opacity="1.0" stroke-width="0.4166666666666666"><path d="M 320.0000,160.0000 l -0.0000,-160.0000 h -160.0000 l -0.0000,160.0000 Z"/></g><g stroke-linejoin="miter" fill-opacity="0.0" fill="rgb(0,0,0)" stroke="rgb(0,0,0)" stroke-linecap="butt" stroke-miterlimit="10.0" stroke-opacity="1.0" stroke-width="0.4166666666666666"><path d="M 217.9454,96.4995 l -0.3799,-0.1574 l 0.3799,-0.1574 l -0.1574,0.3799 l -0.1574,-0.3799 l 0.3799,0.1574 l -0.3799,0.1574 l 0.1574,-0.3799 Z"/></g><g stroke-linejoin="miter" fill-opacity="0.0" fill="rgb(0,0,0)" stroke="rgb(0,0,0)" stroke-linecap="butt" stroke-miterlimit="10.0" stroke-opacity="1.0" stroke-width="0.4166666666666666"><path d="M 217.7418,96.8031 l -0.4470,-0.1851 l 0.4470,-0.1851 l -0.1851,0.4470 l -0.1851,-0.4470 l 0.4470,0.1851 l -0.4470,0.1851 l 0.1851,-0.4470 Z"/></g><g stroke-linejoin="miter" fill-opacity="0.0" fill="rgb(0,0,0)" stroke="rgb(0,0,0)" stroke-linecap="butt" stroke-miterlimit="10.0" stroke-opacity="1.0" stroke-width="0.4166666666666666"><path d="M 217.3636,96.9383 l -0.5258,-0.2178 l 0.5258,-0.2178 l -0.2178,0.5258 l -0.2178,-0.5258 l 0.5258,0.2178 l -0.5258,0.2178 l 0.2178,-0.5258 Z"/></g><g stroke-linejoin="miter" fill-opacity="0.0" fill="rgb(0,0,0)" stroke="rgb(0,0,0)" stroke-linecap="butt" stroke-miterlimit="10.0" stroke-opacity="1.0" stroke-width="0.4166666666666666"><path d="M 216.9401,96.7902 l -0.6186,-0.2562 l 0.6186,-0.2562 l -0.2562,0.6186 l -0.2562,-0.6186 l 0.6186,0.2562 l -0.6186,0.2562 l 0.2562,-0.6186 Z"/></g><g stroke-linejoin="miter" fill-opacity="0.0" fill="rgb(0,0,0)" stroke="rgb(0,0,0)" stroke-linecap="butt" stroke-miterlimit="10.0" stroke-opacity="1.0" stroke-width="0.4166666666666666"><path d="M 216.6746,96.3384 l -0.7278,-0.3015 l 0.7278,-0.3015 l -0.3015,0.7278 l -0.3015,-0.7278 l 0.7278,0.3015 l -0.7278,0.3015 l 0.3015,-0.7278 Z"/></g><g stroke-linejoin="miter" fill-opacity="0.0" fill="rgb(0,0,0)" stroke="rgb(0,0,0)" stroke-linecap="butt" stroke-miterlimit="10.0" stroke-opacity="1.0" stroke-width="0.4166666666666666"><path d="M 216.7758,95.7037 l -0.8562,-0.3547 l 0.8562,-0.3547 l -0.3547,0.8562 l -0.3547,-0.8562 l 0.8562,0.3547 l -0.8562,0.3547 l 0.3547,-0.8562 Z"/></g><g stroke-linejoin="miter" fill-opacity="0.0" fill="rgb(0,0,0)" stroke="rgb(0,0,0)" stroke-linecap="butt" stroke-miterlimit="10.0" stroke-opacity="1.0" stroke-width="0.4166666666666666"><path d="M 217.3597,95.1447 l -1.0073,-0.4172 l 1.0073,-0.4172 l -0.4172,1.0073 l -0.4172,-1.0073 l 1.0073,0.4172 l -1.0073,0.4172 l 0.4172,-1.0073 Z"/></g><g stroke-linejoin="miter" fill-opacity="0.0" fill="rgb(0,0,0)" stroke="rgb(0,0,0)" stroke-linecap="butt" stroke-miterlimit="10.0" stroke-opacity="1.0" stroke-width="0.4166666666666666"><path d="M 218.3593,94.9873 l -1.1851,-0.4909 l 1.1851,-0.4909 l -0.4909,1.1851 l -0.4909,-1.1851 l 1.1851,0.4909 l -1.1851,0.4909 l 0.4909,-1.1851 Z"/></g><g stroke-linejoin="miter" fill-opacity="0.0" fill="rgb(0,0,0)" stroke="rgb(0,0,0)" stroke-linecap="butt" stroke-miterlimit="10.0" stroke-opacity="1.0" stroke-width="0.4166666666666666"><path d="M 219.4871,95.4943 l -1.3942,-0.5775 l 1.3942,-0.5775 l -0.5775,1.3942 l -0.5775,-1.3942 l 1.3942,0.5775 l -1.3942,0.5775 l 0.5775,-1.3942 Z"/></g><g stroke-linejoin="miter" fill-opacity="0.0" fill="rgb(0,0,0)" stroke="rgb(0,0,0)" stroke-linecap="butt" stroke-miterlimit="10.0" stroke-opacity="1.0" stroke-width="0.4166666666666666"><path d="M 220.2893,96.7164 l -1.6402,-0.6794 l 1.6402,-0.6794 l -0.6794,1.6402 l -0.6794,-1.6402 l 1.6402,0.6794 l -1.6402,0.6794 l 0.6794,-1.6402 Z"/></g><g stroke-linejoin="miter" fill-opacity="0.0" fill="rgb(0,0,0)" stroke="rgb(0,0,0)" stroke-linecap="butt" stroke-miterlimit="10.0" stroke-opacity="1.0" stroke-width="0.4166666666666666"><path d="M 220.3011,98.3866 l -1.9297,-0.7993 l 1.9297,-0.7993 l -0.7993,1.9297 l -0.7993,-1.9297 l 1.9297,0.7993 l -1.9297,0.7993 l 0.7993,-1.9297 Z"/></g><g stroke-linejoin="miter" fill-opacity="0.0" fill="rgb(0,0,0)" stroke="rgb(0,0,0)" stroke-linecap="butt" stroke-miterlimit="10.0" stroke-opacity="1.0" stroke-width="0.4166666666666666"><path d="M 219.2672,99.9285 l -2.2702,-0.9404 l 2.2702,-0.9404 l -0.9404,2.2702 l -0.9404,-2.2702 l 2.2702,0.9404 l -2.2702,0.9404 l 0.9404,-2.2702 Z"/></g><g stroke-linejoin="miter" fill-opacity="0.0" fill="rgb(0,0,0)" stroke="rgb(0,0,0)" stroke-linecap="butt" stroke-miterlimit="10.0" stroke-opacity="1.0" stroke-width="0.4166666666666666"><path d="M 217.3461,100.6152 l -2.6709,-1.1063 l 2.6709,-1.1063 l -1.1063,2.6709 l -1.1063,-2.6709 l 2.6709,1.1063 l -2.6709,1.1063 l 1.1063,-2.6709 Z"/></g><g stroke-linejoin="miter" fill-opacity="0.0" fill="rgb(0,0,0)" stroke="rgb(0,0,0)" stroke-linecap="butt" stroke-miterlimit="10.0" stroke-opacity="1.0" stroke-width="0.4166666666666666"><path d="M 215.1948,99.8629 l -3.1422,-1.3015 l 3.1422,-1.3015 l -1.3015,3.1422 l -1.3015,-3.1422 l 3.1422,1.3015 l -3.1422,1.3015 l 1.3015,-3.1422 Z"/></g><g stroke-linejoin="miter" fill-opacity="0.0" fill="rgb(0,0,0)" stroke="rgb(0,0,0)" stroke-linecap="butt" stroke-miterlimit="10.0" stroke-opacity="1.0" stroke-width="0.4166666666666666"><path d="M 213.8463,97.5682 l -3.6967,-1.5312 l 3.6967,-1.5312 l -1.5312,3.6967 l -1.5312,-3.6967 l 3.6967,1.5312 l -3.6967,1.5312 l 1.5312,-3.6967 Z"/></g><g stroke-linejoin="miter" fill-opacity="0.0" fill="rgb(0,0,0)" stroke="rgb(0,0,0)" stroke-linecap="butt" stroke-miterlimit="10.0" stroke-opacity="1.0" stroke-width="0.4166666666666666"><path d="M 214.3602,94.3443 l -4.3491,-1.8014 l 4.3491,-1.8014 l -1.8014,4.3491 l -1.8014,-4.3491 l 4.3491,1.8014 l -4.3491,1.8014 l 1.8014,-4.3491 Z"/></g><g stroke-linejoin="miter" fill-opacity="0.0" fill="rgb(0,0,0)" stroke="rgb(0,0,0)" stroke-linecap="butt" stroke-miterlimit="10.0" stroke-opacity="1.0" stroke-width="0.4166666666666666"><path d="M 217.3261,91.5051 l -5.1165,-2.1193 l 5.1165,-2.1193 l -2.1193,5.1165 l -2.1193,-5.1165 l 5.1165,2.1193 l -5.1165,2.1193 l 2.1193,-5.1165 Z"/></g><g stroke-linejoin="miter" fill-opacity="0.0" fill="rgb(0,0,0)" stroke="rgb(0,0,0)" stroke-linecap="butt" stroke-miterlimit="10.0" stroke-opacity="1.0" stroke-width="0.4166666666666666"><path d="M 222.4037,90.7054 l -6.0195,-2.4933 l 6.0195,-2.4933 l -2.4933,6.0195 l -2.4933,-6.0195 l 6.0195,2.4933 l -6.0195,2.4933 l 2.4933,-6.0195 Z"/></g><g stroke-linejoin="miter" fill-opacity="0.0" fill="rgb(0,0,0)" stroke="rgb(0,0,0)" stroke-linecap="butt" stroke-miterlimit="10.0" stroke-opacity="1.0" stroke-width="0.4166666666666666"><path d="M 228.1322,93.2808 l -7.0817,-2.9333 l 7.0817,-2.9333 l -2.9333,7.0817 l -2.9333,-7.0817 l 7.0817,2.9333 l -7.0817,2.9333 l 2.9333,-7.0817 Z"/></g><g stroke-linejoin="miter" fill-opacity="0.0" fill="rgb(0,0,0)" stroke="rgb(0,0,0)" stroke-linecap="butt" stroke-miterlimit="10.0" stroke-opacity="1.0" stroke-width="0.4166666666666666"><path d="M 232.2066,99.4879 l -8.3314,-3.4510 l 8.3314,-3.4510 l -3.4510,8.3314 l -3.4510,-8.3314 l 8.3314,3.4510 l -8.3314,3.4510 l 3.4510,-8.3314 Z"/></g><g stroke-linejoin="miter" fill-opacity="0.0" fill="rgb(0,0,0)" stroke="rgb(0,0,0)" stroke-linecap="butt" stroke-miterlimit="10.0" stroke-opacity="1.0" stroke-width="0.4166666666666666"><path d="M 232.2665,107.9717 l -9.8017,-4.0600 l 9.8017,-4.0600 l -4.0600,9.8017 l -4.0600,-9.8017 l 9.8017,4.0600 l -9.8017,4.0600 l 4.0600,-9.8017 Z"/></g><g stroke-linejoin="miter" fill-opacity="0.0" fill="rgb(0,0,0)" stroke="rgb(0,0,0)" stroke-linecap="butt" stroke-miterlimit="10.0" stroke-opacity="1.0" stroke-width="0.4166666666666666"><path d="M 227.0149,115.8035 l -11.5314,-4.7765 l 11.5314,-4.7765 l -4.7765,11.5314 l -4.7765,-11.5314 l 11.5314,4.7765 l -11.5314,4.7765 l 4.7765,-11.5314 Z"/></g><g stroke-linejoin="miter" fill-opacity="0.0" fill="rgb(0,0,0)" stroke="rgb(0,0,0)" stroke-linecap="butt" stroke-miterlimit="10.0" stroke-opacity="1.0" stroke-width="0.4166666666666666"><path d="M 217.2572,119.2917 l -13.5664,-5.6194 l 13.5664,-5.6194 l -5.6194,13.5664 l -5.6194,-13.5664 l 13.5664,5.6194 l -13.5664,5.6194 l 5.6194,-13.5664 Z"/></g><g stroke-linejoin="miter" fill-opacity="0.0" fill="rgb(0,0,0)" stroke="rgb(0,0,0)" stroke-linecap="butt" stroke-miterlimit="10.0" stroke-opacity="1.0" stroke-width="0.4166666666666666"><path d="M 206.3300,115.4707 l -15.9604,-6.6110 l 15.9604,-6.6110 l -6.6110,15.9604 l -6.6110,-15.9604 l 15.9604,6.6110 l -15.9604,6.6110 l 6.6110,-15.9604 Z"/></g><g stroke-linejoin="miter" fill-opacity="0.0" fill="rgb(0,0,0)" stroke="rgb(0,0,0)" stroke-linecap="butt" stroke-miterlimit="10.0" stroke-opacity="1.0" stroke-width="0.4166666666666666"><path d="M 199.4806,103.8146 l -18.7770,-7.7777 l 18.7770,-7.7777 l -7.7777,18.7770 l -7.7777,-18.7770 l 18.7770,7.7777 l -18.7770,7.7777 l 7.7777,-18.7770 Z"/></g><g stroke-linejoin="miter" fill-opacity="0.0" fill="rgb(0,0,0)" stroke="rgb(0,0,0)" stroke-linecap="butt" stroke-miterlimit="10.0" stroke-opacity="1.0" stroke-width="0.4166666666666666"><path d="M 202.0905,87.4395 l -22.0905,-9.1502 l 22.0905,-9.1502 l -9.1502,22.0905 l -9.1502,-22.0905 l 22.0905,9.1502 l -22.0905,9.1502 l 9.1502,-22.0905 Z"/></g><g stroke-linejoin="miter" fill-opacity="0.0" fill="rgb(0,0,0)" stroke="rgb(0,0,0)" stroke-linecap="butt" stroke-miterlimit="10.0" stroke-opacity="1.0" stroke-width="0.4166666666666666"><path d="M 217.1558,73.0180 l -25.9889,-10.7649 l 25.9889,-10.7649 l -10.7649,25.9889 l -10.7649,-25.9889 l 25.9889,10.7649 l -25.9889,10.7649 l 10.7649,-25.9889 Z"/></g><g stroke-linejoin="miter" fill-opacity="0.0" fill="rgb(0,0,0)" stroke="rgb(0,0,0)" stroke-linecap="butt" stroke-miterlimit="10.0" stroke-opacity="1.0" stroke-width="0.4166666666666666"><path d="M 242.9467,68.9558 l -30.5751,-12.6646 l 30.5751,-12.6646 l -12.6646,30.5751 l -12.6646,-30.5751 l 30.5751,12.6646 l -30.5751,12.6646 l 12.6646,-30.5751 Z"/></g><g stroke-linejoin="miter" fill-opacity="0.0" fill="rgb(0,0,0)" stroke="rgb(0,0,0)" stroke-linecap="butt" stroke-miterlimit="10.0" stroke-opacity="1.0" stroke-width="0.4166666666666666"><path d="M 272.0437,82.0374 l -35.9708,-14.8996 l 35.9708,-14.8996 l -14.8996,35.9708 l -14.8996,-35.9708 l 35.9708,14.8996 l -35.9708,14.8996 l 14.8996,-35.9708 Z"/></g><g stroke-linejoin="miter" fill-opacity="0.0" fill="rgb(0,0,0)" stroke="rgb(0,0,0)" stroke-linecap="butt" stroke-miterlimit="10.0" stroke-opacity="1.0" stroke-width="0.4166666666666666"><path d="M 292.7393,113.5659 l -42.3185,-17.5289 l 42.3185,-17.5289 l -17.5289,42.3185 l -17.5289,-42.3185 l 42.3185,17.5289 l -42.3185,17.5289 l 17.5289,-42.3185 Z"/></g><g stroke-linejoin="miter" fill-opacity="1.0" fill="rgb(240,240,240)" stroke="rgb(0,0,0)" stroke-linecap="butt" stroke-miterlimit="10.0" stroke-opacity="1.0" stroke-width="0.4166666666666666"><path d="M 160.0000,160.0000 l -0.0000,-160.0000 h -160.0000 l -0.0000,160.0000 Z"/></g><g stroke-linejoin="miter" fill-opacity="0.0" fill="rgb(0,0,0)" stroke="rgb(0,0,0)" stroke-linecap="butt" stroke-miterlimit="10.0" stroke-opacity="1.0" stroke-width="0.4166666666666666"><path d="M 69.6632,91.7958 l -1.2625,0.2511 l 0.2511,-1.2625 l 1.0703,0.7151 l -1.0703,0.7151 l -0.2511,-1.2625 l 1.2625,0.2511 l -0.7151,1.0703 l -0.7151,-1.0703 l 1.2625,-0.2511 l -0.2511,1.2625 l -1.0703,-0.7151 l 1.0703,-0.7151 l 0.2511,1.2625 l -1.2625,-0.2511 l 0.7151,-1.0703 Z"/></g><g stroke-linejoin="miter" fill-opacity="0.0" fill="rgb(0,0,0)" stroke="rgb(0,0,0)" stroke-linecap="butt" stroke-miterlimit="10.0" stroke-opacity="1.0" stroke-width="0.4166666666666666"><path d="M 68.3352,92.6328 l -1.4027,0.2790 l 0.2790,-1.4027 l 1.1892,0.7946 l -1.1892,0.7946 l -0.2790,-1.4027 l 1.4027,0.2790 l -0.7946,1.1892 l -0.7946,-1.1892 l 1.4027,-0.2790 l -0.2790,1.4027 l -1.1892,-0.7946 l 1.1892,-0.7946 l 0.2790,1.4027 l -1.4027,-0.2790 l 0.7946,-1.1892 Z"/></g><g stroke-linejoin="miter" fill-opacity="0.0" fill="rgb(0,0,0)" stroke="rgb(0,0,0)" stroke-linecap="butt" stroke-miterlimit="10.0" stroke-opacity="1.0" stroke-width="0.4166666666666666"><path d="M 66.6859,92.1954 l -1.5586,0.3100 l 0.3100,-1.5586 l 1.3213,0.8829 l -1.3213,0.8829 l -0.3100,-1.5586 l 1.5586,0.3100 l -0.8829,1.3213 l -0.8829,-1.3213 l 1.5586,-0.3100 l -0.3100,1.5586 l -1.3213,-0.8829 l 1.3213,-0.8829 l 0.3100,1.5586 l -1.5586,-0.3100 l 0.8829,-1.3213 Z"/></g><g stroke-linejoin="miter" fill-opacity="0.0" fill="rgb(0,0,0)" stroke="rgb(0,0,0)" stroke-linecap="butt" stroke-miterlimit="10.0" stroke-opacity="1.0" stroke-width="0.4166666666666666"><path d="M 65.7912,90.4984 l -1.7318,0.3445 l 0.3445,-1.7318 l 1.4681,0.9810 l -1.4681,0.9810 l -0.3445,-1.7318 l 1.7318,0.3445 l -0.9810,1.4681 l -0.9810,-1.4681 l 1.7318,-0.3445 l -0.3445,1.7318 l -1.4681,-0.9810 l 1.4681,-0.9810 l 0.3445,1.7318 l -1.7318,-0.3445 l 0.9810,-1.4681 Z"/></g><g stroke-linejoin="miter" fill-opacity="0.0" fill="rgb(0,0,0)" stroke="rgb(0,0,0)" stroke-linecap="butt" stroke-miterlimit="10.0" stroke-opacity="1.0" stroke-width="0.4166666666666666"><path d="M 66.4854,88.3984 l -1.9242,0.3827 l 0.3827,-1.9242 l 1.6313,1.0900 l -1.6313,1.0900 l -0.3827,-1.9242 l 1.9242,0.3827 l -1.0900,1.6313 l -1.0900,-1.6313 l 1.9242,-0.3827 l -0.3827,1.9242 l -1.6313,-1.0900 l 1.6313,-1.0900 l 0.3827,1.9242 l -1.9242,-0.3827 l 1.0900,-1.6313 Z"/></g><g stroke-linejoin="miter" fill-opacity="0.0" fill="rgb(0,0,0)" stroke="rgb(0,0,0)" stroke-linecap="butt" stroke-miterlimit="10.0" stroke-opacity="1.0" stroke-width="0.4166666666666666"><path d="M 68.7517,87.2230 l -2.1380,0.4253 l 0.4253,-2.1380 l 1.8125,1.2111 l -1.8125,1.2111 l -0.4253,-2.1380 l 2.1380,0.4253 l -1.2111,1.8125 l -1.2111,-1.8125 l 2.1380,-0.4253 l -0.4253,2.1380 l -1.8125,-1.2111 l 1.8125,-1.2111 l 0.4253,2.1380 l -2.1380,-0.4253 l 1.2111,-1.8125 Z"/></g><g stroke-linejoin="miter" fill-opacity="0.0" fill="rgb(0,0,0)" stroke="rgb(0,0,0)" stroke-linecap="butt" stroke-miterlimit="10.0" stroke-opacity="1.0" stroke-width="0.4166666666666666"><path d="M 71.5346,88.0011 l -2.3756,0.4725 l 0.4725,-2.3756 l 2.0139,1.3456 l -2.0139,1.3456 l -0.4725,-2.3756 l 2.3756,0.4725 l -1.3456,2.0139 l -1.3456,-2.0139 l 2.3756,-0.4725 l -0.4725,2.3756 l -2.0139,-1.3456 l 2.0139,-1.3456 l 0.4725,2.3756 l -2.3756,-0.4725 l 1.3456,-2.0139 Z"/></g><g stroke-linejoin="miter" fill-opacity="0.0" fill="rgb(0,0,0)" stroke="rgb(0,0,0)" stroke-linecap="butt" stroke-miterlimit="10.0" stroke-opacity="1.0" stroke-width="0.4166666666666666"><path d="M 73.1972,90.7114 l -2.6395,0.5250 l 0.5250,-2.6395 l 2.2377,1.4952 l -2.2377,1.4952 l -0.5250,-2.6395 l 2.6395,0.5250 l -1.4952,2.2377 l -1.4952,-2.2377 l 2.6395,-0.5250 l -0.5250,2.6395 l -2.2377,-1.4952 l 2.2377,-1.4952 l 0.5250,2.6395 l -2.6395,-0.5250 l 1.4952,-2.2377 Z"/></g><g stroke-linejoin="miter" fill-opacity="0.0" fill="rgb(0,0,0)" stroke="rgb(0,0,0)" stroke-linecap="butt" stroke-miterlimit="10.0" stroke-opacity="1.0" stroke-width="0.4166666666666666"><path d="M 72.4715,94.0498 l -2.9328,0.5834 l 0.5834,-2.9328 l 2.4863,1.6613 l -2.4863,1.6613 l -0.5834,-2.9328 l 2.9328,0.5834 l -1.6613,2.4863 l -1.6613,-2.4863 l 2.9328,-0.5834 l -0.5834,2.9328 l -2.4863,-1.6613 l 2.4863,-1.6613 l 0.5834,2.9328 l -2.9328,-0.5834 l 1.6613,-2.4863 Z"/></g><g stroke-linejoin="miter" fill-opacity="0.0" fill="rgb(0,0,0)" stroke="rgb(0,0,0)" stroke-linecap="butt" stroke-miterlimit="10.0" stroke-opacity="1.0" stroke-width="0.4166666666666666"><path d="M 69.3865,95.9943 l -3.2587,0.6482 l 0.6482,-3.2587 l 2.7626,1.8459 l -2.7626,1.8459 l -0.6482,-3.2587 l 3.2587,0.6482 l -1.8459,2.7626 l -1.8459,-2.7626 l 3.2587,-0.6482 l -0.6482,3.2587 l -2.7626,-1.8459 l 2.7626,-1.8459 l 0.6482,3.2587 l -3.2587,-0.6482 l 1.8459,-2.7626 Z"/></g><g stroke-linejoin="miter" fill-opacity="0.0" fill="rgb(0,0,0)" stroke="rgb(0,0,0)" stroke-linecap="butt" stroke-miterlimit="10.0" stroke-opacity="1.0" stroke-width="0.4166666666666666"><path d="M 65.5551,94.9781 l -3.6207,0.7202 l 0.7202,-3.6207 l 3.0695,2.0510 l -3.0695,2.0510 l -0.7202,-3.6207 l 3.6207,0.7202 l -2.0510,3.0695 l -2.0510,-3.0695 l 3.6207,-0.7202 l -0.7202,3.6207 l -3.0695,-2.0510 l 3.0695,-2.0510 l 0.7202,3.6207 l -3.6207,-0.7202 l 2.0510,-3.0695 Z"/></g><g stroke-linejoin="miter" fill-opacity="0.0" fill="rgb(0,0,0)" stroke="rgb(0,0,0)" stroke-linecap="butt" stroke-miterlimit="10.0" stroke-opacity="1.0" stroke-width="0.4166666666666666"><path d="M 63.4767,91.0360 l -4.0230,0.8002 l 0.8002,-4.0230 l 3.4106,2.2789 l -3.4106,2.2789 l -0.8002,-4.0230 l 4.0230,0.8002 l -2.2789,3.4106 l -2.2789,-3.4106 l 4.0230,-0.8002 l -0.8002,4.0230 l -3.4106,-2.2789 l 3.4106,-2.2789 l 0.8002,4.0230 l -4.0230,-0.8002 l 2.2789,-3.4106 Z"/></g><g stroke-linejoin="miter" fill-opacity="0.0" fill="rgb(0,0,0)" stroke="rgb(0,0,0)" stroke-linecap="butt" stroke-miterlimit="10.0" stroke-opacity="1.0" stroke-width="0.4166666666666666"><path d="M 65.0893,86.1576 l -4.4700,0.8891 l 0.8891,-4.4700 l 3.7895,2.5321 l -3.7895,2.5321 l -0.8891,-4.4700 l 4.4700,0.8891 l -2.5321,3.7895 l -2.5321,-3.7895 l 4.4700,-0.8891 l -0.8891,4.4700 l -3.7895,-2.5321 l 3.7895,-2.5321 l 0.8891,4.4700 l -4.4700,-0.8891 l 2.5321,-3.7895 Z"/></g><g stroke-linejoin="miter" fill-opacity="0.0" fill="rgb(0,0,0)" stroke="rgb(0,0,0)" stroke-linecap="butt" stroke-miterlimit="10.0" stroke-opacity="1.0" stroke-width="0.4166666666666666"><path d="M 70.3540,83.4269 l -4.9667,0.9879 l 0.9879,-4.9667 l 4.2106,2.8134 l -4.2106,2.8134 l -0.9879,-4.9667 l 4.9667,0.9879 l -2.8134,4.2106 l -2.8134,-4.2106 l 4.9667,-0.9879 l -0.9879,4.9667 l -4.2106,-2.8134 l 4.2106,-2.8134 l 0.9879,4.9667 l -4.9667,-0.9879 l 2.8134,-4.2106 Z"/></g><g stroke-linejoin="miter" fill-opacity="0.0" fill="rgb(0,0,0)" stroke="rgb(0,0,0)" stroke-linecap="butt" stroke-miterlimit="10.0" stroke-opacity="1.0" stroke-width="0.4166666666666666"><path d="M 76.8189,85.2347 l -5.5186,1.0977 l 1.0977,-5.5186 l 4.6784,3.1260 l -4.6784,3.1260 l -1.0977,-5.5186 l 5.5186,1.0977 l -3.1260,4.6784 l -3.1260,-4.6784 l 5.5186,-1.0977 l -1.0977,5.5186 l -4.6784,-3.1260 l 4.6784,-3.1260 l 1.0977,5.5186 l -5.5186,-1.0977 l 3.1260,-4.6784 Z"/></g><g stroke-linejoin="miter" fill-opacity="0.0" fill="rgb(0,0,0)" stroke="rgb(0,0,0)" stroke-linecap="butt" stroke-miterlimit="10.0" stroke-opacity="1.0" stroke-width="0.4166666666666666"><path d="M 80.6813,91.5308 l -6.1317,1.2197 l 1.2197,-6.1317 l 5.1982,3.4733 l -5.1982,3.4733 l -1.2197,-6.1317 l 6.1317,1.2197 l -3.4733,5.1982 l -3.4733,-5.1982 l 6.1317,-1.2197 l -1.2197,6.1317 l -5.1982,-3.4733 l 5.1982,-3.4733 l 1.2197,6.1317 l -6.1317,-1.2197 l 3.4733,-5.1982 Z"/></g><g stroke-linejoin="miter" fill-opacity="0.0" fill="rgb(0,0,0)" stroke="rgb(0,0,0)" stroke-linecap="butt" stroke-miterlimit="10.0" stroke-opacity="1.0" stroke-width="0.4166666666666666"><path d="M 78.9953,99.2861 l -6.8130,1.3552 l 1.3552,-6.8130 l 5.7758,3.8593 l -5.7758,3.8593 l -1.3552,-6.8130 l 6.8130,1.3552 l -3.8593,5.7758 l -3.8593,-5.7758 l 6.8130,-1.3552 l -1.3552,6.8130 l -5.7758,-3.8593 l 5.7758,-3.8593 l 1.3552,6.8130 l -6.8130,-1.3552 l 3.8593,-5.7758 Z"/></g><g stroke-linejoin="miter" fill-opacity="0.0" fill="rgb(0,0,0)" stroke="rgb(0,0,0)" stroke-linecap="butt" stroke-miterlimit="10.0" stroke-opacity="1.0" stroke-width="0.4166666666666666"><path d="M 71.8287,103.8033 l -7.5700,1.5058 l 1.5058,-7.5700 l 6.4176,4.2881 l -6.4176,4.2881 l -1.5058,-7.5700 l 7.5700,1.5058 l -4.2881,6.4176 l -4.2881,-6.4176 l 7.5700,-1.5058 l -1.5058,7.5700 l -6.4176,-4.2881 l 6.4176,-4.2881 l 1.5058,7.5700 l -7.5700,-1.5058 l 4.2881,-6.4176 Z"/></g><g stroke-linejoin="miter" fill-opacity="0.0" fill="rgb(0,0,0)" stroke="rgb(0,0,0)" stroke-linecap="butt" stroke-miterlimit="10.0" stroke-opacity="1.0" stroke-width="0.4166666666666666"><path d="M 62.9281,101.4427 l -8.4112,1.6731 l 1.6731,-8.4112 l 7.1306,4.7645 l -7.1306,4.7645 l -1.6731,-8.4112 l 8.4112,1.6731 l -4.7645,7.1306 l -4.7645,-7.1306 l 8.4112,-1.6731 l -1.6731,8.4112 l -7.1306,-4.7645 l 7.1306,-4.7645 l 1.6731,8.4112 l -8.4112,-1.6731 l 4.7645,-7.1306 Z"/></g><g stroke-linejoin="miter" fill-opacity="0.0" fill="rgb(0,0,0)" stroke="rgb(0,0,0)" stroke-linecap="butt" stroke-miterlimit="10.0" stroke-opacity="1.0" stroke-width="0.4166666666666666"><path d="M 58.1000,92.2849 l -9.3457,1.8590 l 1.8590,-9.3457 l 7.9229,5.2939 l -7.9229,5.2939 l -1.8590,-9.3457 l 9.3457,1.8590 l -5.2939,7.9229 l -5.2939,-7.9229 l 9.3457,-1.8590 l -1.8590,9.3457 l -7.9229,-5.2939 l 7.9229,-5.2939 l 1.8590,9.3457 l -9.3457,-1.8590 l 5.2939,-7.9229 Z"/></g><g stroke-linejoin="miter" fill-opacity="0.0" fill="rgb(0,0,0)" stroke="rgb(0,0,0)" stroke-linecap="butt" stroke-miterlimit="10.0" stroke-opacity="1.0" stroke-width="0.4166666666666666"><path d="M 61.8462,80.9520 l -10.3841,2.0655 l 2.0655,-10.3841 l 8.8033,5.8821 l -8.8033,5.8821 l -2.0655,-10.3841 l 10.3841,2.0655 l -5.8821,8.8033 l -5.8821,-8.8033 l 10.3841,-2.0655 l -2.0655,10.3841 l -8.8033,-5.8821 l 8.8033,-5.8821 l 2.0655,10.3841 l -10.3841,-2.0655 l 5.8821,-8.8033 Z"/></g><g stroke-linejoin="miter" fill-opacity="0.0" fill="rgb(0,0,0)" stroke="rgb(0,0,0)" stroke-linecap="butt" stroke-miterlimit="10.0" stroke-opacity="1.0" stroke-width="0.4166666666666666"><path d="M 74.0763,74.6085 l -11.5379,2.2950 l 2.2950,-11.5379 l 9.7814,6.5357 l -9.7814,6.5357 l -2.2950,-11.5379 l 11.5379,2.2950 l -6.5357,9.7814 l -6.5357,-9.7814 l 11.5379,-2.2950 l -2.2950,11.5379 l -9.7814,-6.5357 l 9.7814,-6.5357 l 2.2950,11.5379 l -11.5379,-2.2950 l 6.5357,-9.7814 Z"/></g><g stroke-linejoin="miter" fill-opacity="0.0" fill="rgb(0,0,0)" stroke="rgb(0,0,0)" stroke-linecap="butt" stroke-miterlimit="10.0" stroke-opacity="1.0" stroke-width="0.4166666666666666"><path d="M 89.0946,78.8080 l -12.8199,2.5500 l 2.5500,-12.8199 l 10.8682,7.2619 l -10.8682,7.2619 l -2.5500,-12.8199 l 12.8199,2.5500 l -7.2619,10.8682 l -7.2619,-10.8682 l 12.8199,-2.5500 l -2.5500,12.8199 l -10.8682,-7.2619 l 10.8682,-7.2619 l 2.5500,12.8199 l -12.8199,-2.5500 l 7.2619,-10.8682 Z"/></g><g stroke-linejoin="miter" fill-opacity="0.0" fill="rgb(0,0,0)" stroke="rgb(0,0,0)" stroke-linecap="butt" stroke-miterlimit="10.0" stroke-opacity="1.0" stroke-width="0.4166666666666666"><path d="M 98.0672,93.4343 l -14.2444,2.8334 l 2.8334,-14.2444 l 12.0758,8.0688 l -12.0758,8.0688 l -2.8334,-14.2444 l 14.2444,2.8334 l -8.0688,12.0758 l -8.0688,-12.0758 l 14.2444,-2.8334 l -2.8334,14.2444 l -12.0758,-8.0688 l 12.0758,-8.0688 l 2.8334,14.2444 l -14.2444,-2.8334 l 8.0688,-12.0758 Z"/></g><g stroke-linejoin="miter" fill-opacity="0.0" fill="rgb(0,0,0)" stroke="rgb(0,0,0)" stroke-linecap="butt" stroke-miterlimit="10.0" stroke-opacity="1.0" stroke-width="0.4166666666666666"><path d="M 94.1504,111.4502 l -15.8271,3.1482 l 3.1482,-15.8271 l 13.4175,8.9653 l -13.4175,8.9653 l -3.1482,-15.8271 l 15.8271,3.1482 l -8.9653,13.4175 l -8.9653,-13.4175 l 15.8271,-3.1482 l -3.1482,15.8271 l -13.4175,-8.9653 l 13.4175,-8.9653 l 3.1482,15.8271 l -15.8271,-3.1482 l 8.9653,-13.4175 Z"/></g><g stroke-linejoin="miter" fill-opacity="0.0" fill="rgb(0,0,0)" stroke="rgb(0,0,0)" stroke-linecap="butt" stroke-miterlimit="10.0" stroke-opacity="1.0" stroke-width="0.4166666666666666"><path d="M 77.5021,121.9440 l -17.5856,3.4980 l 3.4980,-17.5856 l 14.9084,9.9615 l -14.9084,9.9615 l -3.4980,-17.5856 l 17.5856,3.4980 l -9.9615,14.9084 l -9.9615,-14.9084 l 17.5856,-3.4980 l -3.4980,17.5856 l -14.9084,-9.9615 l 14.9084,-9.9615 l 3.4980,17.5856 l -17.5856,-3.4980 l 9.9615,-14.9084 Z"/></g><g stroke-linejoin="miter" fill-opacity="0.0" fill="rgb(0,0,0)" stroke="rgb(0,0,0)" stroke-linecap="butt" stroke-miterlimit="10.0" stroke-opacity="1.0" stroke-width="0.4166666666666666"><path d="M 56.8255,116.4601 l -19.5396,3.8867 l 3.8867,-19.5396 l 16.5649,11.0683 l -16.5649,11.0683 l -3.8867,-19.5396 l 19.5396,3.8867 l -11.0683,16.5649 l -11.0683,-16.5649 l 19.5396,-3.8867 l -3.8867,19.5396 l -16.5649,-11.0683 l 16.5649,-11.0683 l 3.8867,19.5396 l -19.5396,-3.8867 l 11.0683,-16.5649 Z"/></g><g stroke-linejoin="miter" fill-opacity="0.0" fill="rgb(0,0,0)" stroke="rgb(0,0,0)" stroke-linecap="butt" stroke-miterlimit="10.0" stroke-opacity="1.0" stroke-width="0.4166666666666666"><path d="M 45.6095,95.1861 l -21.7107,4.3185 l 4.3185,-21.7107 l 18.4054,12.2981 l -18.4054,12.2981 l -4.3185,-21.7107 l 21.7107,4.3185 l -12.2981,18.4054 l -12.2981,-18.4054 l 21.7107,-4.3185 l -4.3185,21.7107 l -18.4054,-12.2981 l 18.4054,-12.2981 l 4.3185,21.7107 l -21.7107,-4.3185 l 12.2981,-18.4054 Z"/></g><g stroke-linejoin="miter" fill-opacity="0.0" fill="rgb(0,0,0)" stroke="rgb(0,0,0)" stroke-linecap="butt" stroke-miterlimit="10.0" stroke-opacity="1.0" stroke-width="0.4166666666666666"><path d="M 54.3121,68.8591 l -24.1230,4.7984 l 4.7984,-24.1230 l 20.4505,13.6646 l -20.4505,13.6646 l -4.7984,-24.1230 l 24.1230,4.7984 l -13.6646,20.4505 l -13.6646,-20.4505 l 24.1230,-4.7984 l -4.7984,24.1230 l -20.4505,-13.6646 l 20.4505,-13.6646 l 4.7984,24.1230 l -24.1230,-4.7984 l 13.6646,-20.4505 Z"/></g><g stroke-linejoin="miter" fill-opacity="0.0" fill="rgb(0,0,0)" stroke="rgb(0,0,0)" stroke-linecap="butt" stroke-miterlimit="10.0" stroke-opacity="1.0" stroke-width="0.4166666666666666"><path d="M 82.7234,54.1227 l -26.8033,5.3315 l 5.3315,-26.8033 l 22.7227,15.1828 l -22.7227,15.1828 l -5.3315,-26.8033 l 26.8033,5.3315 l -15.1828,22.7227 l -15.1828,-22.7227 l 26.8033,-5.3315 l -5.3315,26.8033 l -22.7227,-15.1828 l 22.7227,-15.1828 l 5.3315,26.8033 l -26.8033,-5.3315 l 15.1828,-22.7227 Z"/></g><g stroke-linejoin="miter" fill-opacity="0.0" fill="rgb(0,0,0)" stroke="rgb(0,0,0)" stroke-linecap="butt" stroke-miterlimit="10.0" stroke-opacity="1.0" stroke-width="0.4166666666666666"><path d="M 117.6117,63.8785 l -29.7814,5.9239 l 5.9239,-29.7814 l 25.2475,16.8698 l -25.2475,16.8698 l -5.9239,-29.7814 l 29.7814,5.9239 l -16.8698,25.2475 l -16.8698,-25.2475 l 29.7814,-5.9239 l -5.9239,29.7814 l -25.2475,-16.8698 l 25.2475,-16.8698 l 5.9239,29.7814 l -29.7814,-5.9239 l 16.8698,-25.2475 Z"/></g><g stroke-linejoin="miter" fill-opacity="0.0" fill="rgb(0,0,0)" stroke="rgb(0,0,0)" stroke-linecap="butt" stroke-miterlimit="10.0" stroke-opacity="1.0" stroke-width="0.4166666666666666"><path d="M 138.4556,97.8562 l -33.0905,6.5821 l 6.5821,-33.0905 l 28.0528,18.7442 l -28.0528,18.7442 l -6.5821,-33.0905 l 33.0905,6.5821 l -18.7442,28.0528 l -18.7442,-28.0528 l 33.0905,-6.5821 l -6.5821,33.0905 l -28.0528,-18.7442 l 28.0528,-18.7442 l 6.5821,33.0905 l -33.0905,-6.5821 l 18.7442,-28.0528 Z"/></g><g stroke-linejoin="miter" fill-opacity="1.0" font-size="2.4999999999999996px" fill="rgb(0,0,0)" stroke="rgb(0,0,0)" stroke-linecap="butt" stroke-miterlimit="10.0" stroke-opacity="1.0" stroke-width="1.5676734353812338"><text transform="matrix(1.0000,0.0000,0.0000,1.0000,0.0000,0.0000)" stroke="none" dominant-baseline="middle" text-anchor="middle">COMPOSITION 2</text></g></svg>