<?xml version="1.0" encoding="UTF-8"?>
<!DOCTYPE svg PUBLIC "-//W3C//DTD SVG 1.1//EN"
    "http://www.w3.org/Graphics/SVG/1.1/DTD/svg11.dtd"><svg font-size="1" viewBox="0.0 0.0 479.99999999999994 479.99999999999983" stroke="rgb(0,0,0)" xmlns="http://www.w3.org/2000/svg" width="480.0000" stroke-opacity="1" height="480.0000" version="1.1" xmlns:xlink="http://www.w3.org/1999/xlink"><defs></defs><g stroke-linejoin="miter" fill-opacity="0.0" fill="rgb(0,0,0)" stroke="rgb(0,0,0)" stroke-linecap="butt" stroke-miterlimit="10.0" stroke-opacity="1.0" stroke-width="0.0"><path d="M 480.0000,480.0000 l -0.0000,-480.0000 h -480.0000 l -0.0000,480.0000 Z"/></g><g stroke-linejoin="miter" fill-opacity="0.0" fill="rgb(0,0,0)" stroke="rgb(0,0,0)" stroke-linecap="butt" stroke-miterlimit="10.0" stroke-opacity="1.0" stroke-width="0.44999999999999984"><path d="M 249.9264,221.3755 l -29.6226,-155.2873 l 48.8517,150.3501 l -67.3104,-143.0418 l 84.7075,133.4776 l -100.7687,-121.8085 l 115.2408,108.2183 l -127.8954,-92.9215 l 138.5331,76.1592 l -146.9860,-58.1959 l 153.1208,39.3147 l -156.8409,-19.8136 l 158.0874,-0.0000 l -156.8409,19.8136 l 153.1208,-39.3147 l -146.9860,58.1959 l 138.5331,-76.1592 l -127.8954,92.9215 l 115.2408,-108.2183 l -100.7687,121.8085 l 84.7075,-133.4776 l -67.3104,143.0418 l 48.8517,-150.3501 l -29.6226,155.2873 l 9.9264,-157.7755 Z"/></g><g stroke-linejoin="miter" fill-opacity="0.0" fill="rgb(0,0,0)" stroke="rgb(0,0,0)" stroke-linecap="butt" stroke-miterlimit="10.0" stroke-opacity="1.0" stroke-width="0.44999999999999984"><path d="M 157.4837,288.5390 l -29.6226,-155.2873 l 48.8517,150.3501 l -67.3104,-143.0418 l 84.7075,133.4776 l -100.7687,-121.8085 l 115.2408,108.2183 l -127.8954,-92.9215 l 138.5331,76.1592 l -146.9860,-58.1959 l 153.1208,39.3147 l -156.8409,-19.8136 l 158.0874,-0.0000 l -156.8409,19.8136 l 153.1208,-39.3147 l -146.9860,58.1959 l 138.5331,-76.1592 l -127.8954,92.9215 l 115.2408,-108.2183 l -100.7687,121.8085 l 84.7075,-133.4776 l -67.3104,143.0418 l 48.8517,-150.3501 l -29.6226,155.2873 l 9.9264,-157.7755 Z"/></g><g stroke-linejoin="miter" fill-opacity="0.0" fill="rgb(0,0,0)" stroke="rgb(0,0,0)" stroke-linecap="butt" stroke-miterlimit="10.0" stroke-opacity="1.0" stroke-width="0.44999999999999984"><path d="M 192.7937,397.2119 l -29.6226,-155.2873 l 48.8517,150.3501 l -67.3104,-143.0418 l 84.7075,133.4776 l -100.7687,-121.8085 l 115.2408,108.2183 l -127.8954,-92.9215 l 138.5331,76.1592 l -146.9860,-58.1959 l 153.1208,39.3147 l -156.8409,-19.8136 l 158.0874,-0.0000 l -156.8409,19.8136 l 153.1208,-39.3147 l -146.9860,58.1959 l 138.5331,-76.1592 l -127.8954,92.9215 l 115.2408,-108.2183 l -100.7687,121.8085 l 84.7075,-133.4776 l -67.3104,143.0418 l 48.8517,-150.3501 l -29.6226,155.2873 l 9.9264,-157.7755 Z"/></g><g stroke-linejoin="miter" fill-opacity="0.0" fill="rgb(0,0,0)" stroke="rgb(0,0,0)" stroke-linecap="butt" stroke-miterlimit="10.0" stroke-opacity="1.0" stroke-width="0.44999999999999984"><path d="M 307.0591,397.2119 l -29.6226,-155.2873 l 48.8517,150.3501 l -67.3104,-143.0418 l 84.7075,133.4776 l -100.7687,-121.8085 l 115.2408,108.2183 l -127.8954,-92.9215 l 138.5331,76.1592 l -146.9860,-58.1959 l 153.1208,39.3147 l -156.8409,-19.8136 l 158.0874,-0.0000 l -156.8409,19.8136 l 153.1208,-39.3147 l -146.9860,58.1959 l 138.5331,-76.1592 l -127.8954,92.9215 l 115.2408,-108.2183 l -100.7687,121.8085 l 84.7075,-133.4776 l -67.3104,143.0418 l 48.8517,-150.3501 l -29.6226,155.2873 l 9.9264,-157.7755 Z"/></g><g stroke-linejoin="miter" fill-opacity="0.0" fill="rgb(0,0,0)" stroke="rgb(0,0,0)" stroke-linecap="butt" stroke-miterlimit="10.0" stroke-opacity="1.0" stroke-width="0.44999999999999984"><path d="M 342.3691,288.5390 l -29.6226,-155.2873 l 48.8517,150.3501 l -67.3104,-143.0418 l 84.7075,133.4776 l -100.7687,-121.8085 l 115.2408,108.2183 l -127.8954,-92.9215 l 138.5331,76.1592 l -146.9860,-58.1959 l 153.1208,39.3147 l -156.8409,-19.8136 l 158.0874,-0.0000 l -156.8409,19.8136 l 153.1208,-39.3147 l -146.9860,58.1959 l 138.5331,-76.1592 l -127.8954,92.9215 l 115.2408,-108.2183 l -100.7687,121.8085 l 84.7075,-133.4776 l -67.3104,143.0418 l 48.8517,-150.3501 l -29.6226,155.2873 l 9.9264,-157.7755 Z"/></g></svg>