<?xml version="1.0" encoding="UTF-8"?>
<!DOCTYPE svg PUBLIC "-//W3C//DTD SVG 1.1//EN"
    "http://www.w3.org/Graphics/SVG/1.1/DTD/svg11.dtd"><svg font-size="1" viewBox="0.0 0.0 479.99999999999994 479.99999999999983" stroke="rgb(0,0,0)" xmlns="http://www.w3.org/2000/svg" width="480.0000" stroke-opacity="1" height="480.0000" version="1.1" xmlns:xlink="http://www.w3.org/1999/xlink"><defs></defs><g stroke-linejoin="miter" fill-opacity="0.0" fill="rgb(0,0,0)" stroke="rgb(0,0,0)" stroke-linecap="butt" stroke-miterlimit="10.0" stroke-opacity="1.0" stroke-width="0.0"><path d="M 480.0000,480.0000 l -0.0000,-480.0000 h -480.0000 l -0.0000,480.0000 Z"/></g><g stroke-linejoin="bevel" fill-opacity="0.0" fill="rgb(0,0,0)" stroke="rgb(0,0,0)" stroke-linecap="butt" stroke-miterlimit="10.0" stroke-opacity="1.0" stroke-width="0.44999999999999984"><path d="M 389.5364,257.5925 l -8.7963,-8.7963 "/></g><g stroke-linejoin="bevel" fill-opacity="0.0" fill="rgb(0,0,0)" stroke="rgb(0,0,0)" stroke-linecap="butt" stroke-miterlimit="10.0" stroke-opacity="1.0" stroke-width="0.44999999999999984"><path d="M 348.4872,275.1850 v 11.7283 l -35.1850,-5.8642 l -5.8642,5.8642 "/></g><g stroke-linejoin="bevel" fill-opacity="0.0" fill="rgb(0,0,0)" stroke="rgb(0,0,0)" stroke-linecap="butt" stroke-miterlimit="10.0" stroke-opacity="1.0" stroke-width="0.44999999999999984"><path d="M 389.5364,181.3583 l -2.9321,2.9321 l 2.9321,2.9321 l -2.9321,-2.9321 l 2.9321,-2.9321 "/></g><g stroke-linejoin="bevel" fill-opacity="0.0" fill="rgb(0,0,0)" stroke="rgb(0,0,0)" stroke-linecap="butt" stroke-miterlimit="10.0" stroke-opacity="1.0" stroke-width="0.44999999999999984"><path d="M 380.7402,178.4262 l 8.7963,2.9321 l -0.0000,5.8642 l -2.9321,2.9321 "/></g><g stroke-linejoin="bevel" fill-opacity="0.0" fill="rgb(0,0,0)" stroke="rgb(0,0,0)" stroke-linecap="butt" stroke-miterlimit="10.0" stroke-opacity="1.0" stroke-width="0.44999999999999984"><path d="M 363.1476,248.7963 v -5.8642 "/></g><g stroke-linejoin="bevel" fill-opacity="0.0" fill="rgb(0,0,0)" stroke="rgb(0,0,0)" stroke-linecap="butt" stroke-miterlimit="10.0" stroke-opacity="1.0" stroke-width="0.44999999999999984"><path d="M 380.7402,260.5246 l -17.5925,-11.7283 l 5.8642,-5.8642 "/></g><g stroke-linejoin="bevel" fill-opacity="0.0" fill="rgb(0,0,0)" stroke="rgb(0,0,0)" stroke-linecap="butt" stroke-miterlimit="10.0" stroke-opacity="1.0" stroke-width="0.44999999999999984"><path d="M 371.9439,245.8642 l -2.9321,8.7963 "/></g><g stroke-linejoin="bevel" fill-opacity="0.0" fill="rgb(0,0,0)" stroke="rgb(0,0,0)" stroke-linecap="butt" stroke-miterlimit="10.0" stroke-opacity="1.0" stroke-width="0.44999999999999984"><path d="M 377.8081,251.7283 l 2.9321,8.7963 "/></g><g stroke-linejoin="bevel" fill-opacity="0.0" fill="rgb(0,0,0)" stroke="rgb(0,0,0)" stroke-linecap="butt" stroke-miterlimit="10.0" stroke-opacity="1.0" stroke-width="0.44999999999999984"><path d="M 383.6722,245.8642 l 32.2530,14.6604 "/></g><g stroke-linejoin="bevel" fill-opacity="0.0" fill="rgb(0,0,0)" stroke="rgb(0,0,0)" stroke-linecap="butt" stroke-miterlimit="10.0" stroke-opacity="1.0" stroke-width="0.44999999999999984"><path d="M 383.6722,240.0000 l 41.0492,17.5925 "/></g><g stroke-linejoin="bevel" fill-opacity="0.0" fill="rgb(0,0,0)" stroke="rgb(0,0,0)" stroke-linecap="butt" stroke-miterlimit="10.0" stroke-opacity="1.0" stroke-width="0.44999999999999984"><path d="M 366.0797,240.0000 l 11.7283,-5.8642 l 41.0492,5.8642 "/></g><g stroke-linejoin="bevel" fill-opacity="0.0" fill="rgb(0,0,0)" stroke="rgb(0,0,0)" stroke-linecap="butt" stroke-miterlimit="10.0" stroke-opacity="1.0" stroke-width="0.44999999999999984"><path d="M 339.6909,237.0679 l -2.9321,2.9321 l -23.4567,-11.7283 l -5.8642,5.8642 l 2.9321,8.7963 l -8.7963,-2.9321 "/></g><g stroke-linejoin="bevel" fill-opacity="0.0" fill="rgb(0,0,0)" stroke="rgb(0,0,0)" stroke-linecap="butt" stroke-miterlimit="10.0" stroke-opacity="1.0" stroke-width="0.44999999999999984"><path d="M 354.3514,257.5925 l -14.6604,-14.6604 v -5.8642 h 5.8642 "/></g><g stroke-linejoin="bevel" fill-opacity="0.0" fill="rgb(0,0,0)" stroke="rgb(0,0,0)" stroke-linecap="butt" stroke-miterlimit="10.0" stroke-opacity="1.0" stroke-width="0.44999999999999984"><path d="M 407.1289,193.0866 l 5.8642,5.8642 l -5.8642,5.8642 v 11.7283 l -5.8642,5.8642 l -26.3888,-2.9321 l -11.7283,5.8642 l 5.8642,11.7283 l 5.8642,-5.8642 l 43.9813,8.7963 l 14.6604,8.7963 l 5.8642,5.8642 l -23.4567,5.8642 l -14.6604,8.7963 l -11.7283,-11.7283 l -8.7963,2.9321 l -2.9321,14.6604 l 8.7963,-2.9321 l 0.0000,-5.8642 l 2.9321,-2.9321 l 2.9321,14.6604 v 5.8642 l -5.8642,-0.0000 l -11.7283,-5.8642 l -14.6604,8.7963 l -0.0000,11.7283 l -43.9813,-8.7963 l -5.8642,5.8642 l -5.8642,-11.7283 l 11.7283,-5.8642 l 26.3888,2.9321 l 5.8642,-5.8642 v -11.7283 l 5.8642,-5.8642 l 5.8642,-0.0000 "/></g><g stroke-linejoin="bevel" fill-opacity="0.0" fill="rgb(0,0,0)" stroke="rgb(0,0,0)" stroke-linecap="butt" stroke-miterlimit="10.0" stroke-opacity="1.0" stroke-width="0.44999999999999984"><path d="M 398.3327,184.2904 l 8.7963,8.7963 l -5.8642,17.5925 l -26.3888,8.7963 "/></g><g stroke-linejoin="bevel" fill-opacity="0.0" fill="rgb(0,0,0)" stroke="rgb(0,0,0)" stroke-linecap="butt" stroke-miterlimit="10.0" stroke-opacity="1.0" stroke-width="0.44999999999999984"><path d="M 392.4685,184.2904 l 5.8642,-5.8642 v 11.7283 h -5.8642 "/></g><g stroke-linejoin="bevel" fill-opacity="0.0" fill="rgb(0,0,0)" stroke="rgb(0,0,0)" stroke-linecap="butt" stroke-miterlimit="10.0" stroke-opacity="1.0" stroke-width="0.44999999999999984"><path d="M 371.9439,169.6299 l 23.4567,11.7283 "/></g><g stroke-linejoin="bevel" fill-opacity="0.0" fill="rgb(0,0,0)" stroke="rgb(0,0,0)" stroke-linecap="butt" stroke-miterlimit="10.0" stroke-opacity="1.0" stroke-width="0.44999999999999984"><path d="M 371.9439,181.3583 v 5.8642 "/></g><g stroke-linejoin="bevel" fill-opacity="0.0" fill="rgb(0,0,0)" stroke="rgb(0,0,0)" stroke-linecap="butt" stroke-miterlimit="10.0" stroke-opacity="1.0" stroke-width="0.44999999999999984"><path d="M 374.8760,190.1545 l -14.6604,-8.7963 l 8.7963,2.9321 l -2.9321,-8.7963 l 5.8642,-5.8642 l 2.9321,2.9321 l -2.9321,2.9321 l -2.9321,-2.9321 "/></g><g stroke-linejoin="bevel" fill-opacity="0.0" fill="rgb(0,0,0)" stroke="rgb(0,0,0)" stroke-linecap="butt" stroke-miterlimit="10.0" stroke-opacity="1.0" stroke-width="0.44999999999999984"><path d="M 380.7402,196.0187 l -5.8642,-5.8642 l 2.9321,-2.9321 "/></g><g stroke-linejoin="bevel" fill-opacity="0.0" fill="rgb(0,0,0)" stroke="rgb(0,0,0)" stroke-linecap="butt" stroke-miterlimit="10.0" stroke-opacity="1.0" stroke-width="0.44999999999999984"><path d="M 336.7589,216.5433 l 5.8642,-5.8642 l 14.6604,-8.7963 l 23.4567,-5.8642 l 5.8642,5.8642 l 5.8642,0.0000 "/></g><g stroke-linejoin="bevel" fill-opacity="0.0" fill="rgb(0,0,0)" stroke="rgb(0,0,0)" stroke-linecap="butt" stroke-miterlimit="10.0" stroke-opacity="1.0" stroke-width="0.44999999999999984"><path d="M 333.8268,225.3396 l 0.0000,-5.8642 l -2.9321,-14.6604 l -2.9321,2.9321 v 5.8642 l -8.7963,2.9321 l 2.9321,-14.6604 l 8.7963,-2.9321 l 11.7283,11.7283 "/></g><g stroke-linejoin="bevel" fill-opacity="0.0" fill="rgb(0,0,0)" stroke="rgb(0,0,0)" stroke-linecap="butt" stroke-miterlimit="10.0" stroke-opacity="1.0" stroke-width="0.44999999999999984"><path d="M 301.5738,240.0000 l 0.0000,-11.7283 l 14.6604,-8.7963 l 11.7283,5.8642 h 5.8642 l 8.7963,-2.9321 "/></g><g stroke-linejoin="bevel" fill-opacity="0.0" fill="rgb(0,0,0)" stroke="rgb(0,0,0)" stroke-linecap="butt" stroke-miterlimit="10.0" stroke-opacity="1.0" stroke-width="0.44999999999999984"><path d="M 299.5326,378.2986 l 3.2197,-12.0159 "/></g><g stroke-linejoin="bevel" fill-opacity="0.0" fill="rgb(0,0,0)" stroke="rgb(0,0,0)" stroke-linecap="butt" stroke-miterlimit="10.0" stroke-opacity="1.0" stroke-width="0.44999999999999984"><path d="M 263.7725,351.5452 l -10.1570,5.8642 l -12.5140,-33.4032 l -8.0106,-2.1464 "/></g><g stroke-linejoin="bevel" fill-opacity="0.0" fill="rgb(0,0,0)" stroke="rgb(0,0,0)" stroke-linecap="butt" stroke-miterlimit="10.0" stroke-opacity="1.0" stroke-width="0.44999999999999984"><path d="M 365.5534,340.1815 l -4.0053,-1.0732 l -1.0732,4.0053 l 1.0732,-4.0053 l 4.0053,1.0732 "/></g><g stroke-linejoin="bevel" fill-opacity="0.0" fill="rgb(0,0,0)" stroke="rgb(0,0,0)" stroke-linecap="butt" stroke-miterlimit="10.0" stroke-opacity="1.0" stroke-width="0.44999999999999984"><path d="M 363.6946,331.0976 l 1.8589,9.0838 l -5.0785,2.9321 l -4.0053,-1.0732 "/></g><g stroke-linejoin="bevel" fill-opacity="0.0" fill="rgb(0,0,0)" stroke="rgb(0,0,0)" stroke-linecap="butt" stroke-miterlimit="10.0" stroke-opacity="1.0" stroke-width="0.44999999999999984"><path d="M 293.9560,351.0471 l 5.0785,-2.9321 "/></g><g stroke-linejoin="bevel" fill-opacity="0.0" fill="rgb(0,0,0)" stroke="rgb(0,0,0)" stroke-linecap="butt" stroke-miterlimit="10.0" stroke-opacity="1.0" stroke-width="0.44999999999999984"><path d="M 292.5952,372.1469 l 1.3608,-21.0997 l 8.0106,2.1464 "/></g><g stroke-linejoin="bevel" fill-opacity="0.0" fill="rgb(0,0,0)" stroke="rgb(0,0,0)" stroke-linecap="butt" stroke-miterlimit="10.0" stroke-opacity="1.0" stroke-width="0.44999999999999984"><path d="M 300.8934,357.1989 l -9.0838,1.8589 "/></g><g stroke-linejoin="bevel" fill-opacity="0.0" fill="rgb(0,0,0)" stroke="rgb(0,0,0)" stroke-linecap="butt" stroke-miterlimit="10.0" stroke-opacity="1.0" stroke-width="0.44999999999999984"><path d="M 298.7470,365.2095 l -6.1517,6.9374 "/></g><g stroke-linejoin="bevel" fill-opacity="0.0" fill="rgb(0,0,0)" stroke="rgb(0,0,0)" stroke-linecap="butt" stroke-miterlimit="10.0" stroke-opacity="1.0" stroke-width="0.44999999999999984"><path d="M 306.7576,367.3559 l 3.4302,35.2621 "/></g><g stroke-linejoin="bevel" fill-opacity="0.0" fill="rgb(0,0,0)" stroke="rgb(0,0,0)" stroke-linecap="butt" stroke-miterlimit="10.0" stroke-opacity="1.0" stroke-width="0.44999999999999984"><path d="M 311.8361,364.4238 l 5.2890,44.3459 "/></g><g stroke-linejoin="bevel" fill-opacity="0.0" fill="rgb(0,0,0)" stroke="rgb(0,0,0)" stroke-linecap="butt" stroke-miterlimit="10.0" stroke-opacity="1.0" stroke-width="0.44999999999999984"><path d="M 303.0399,349.1882 l 10.9427,7.2250 l 15.4461,38.4817 "/></g><g stroke-linejoin="bevel" fill-opacity="0.0" fill="rgb(0,0,0)" stroke="rgb(0,0,0)" stroke-linecap="butt" stroke-miterlimit="10.0" stroke-opacity="1.0" stroke-width="0.44999999999999984"><path d="M 292.3847,324.8688 l -4.0053,-1.0732 l -1.5713,-26.1783 l -8.0106,-2.1464 l -6.1517,6.9374 l -1.8589,-9.0838 "/></g><g stroke-linejoin="bevel" fill-opacity="0.0" fill="rgb(0,0,0)" stroke="rgb(0,0,0)" stroke-linecap="butt" stroke-miterlimit="10.0" stroke-opacity="1.0" stroke-width="0.44999999999999984"><path d="M 281.9401,347.8275 l 5.3661,-20.0265 l 5.0785,-2.9321 l 2.9321,5.0785 "/></g><g stroke-linejoin="bevel" fill-opacity="0.0" fill="rgb(0,0,0)" stroke="rgb(0,0,0)" stroke-linecap="butt" stroke-miterlimit="10.0" stroke-opacity="1.0" stroke-width="0.44999999999999984"><path d="M 364.1927,361.2812 l -2.1464,8.0106 l -8.0106,-2.1464 l -10.1570,5.8642 l -8.0106,-2.1464 l -10.6551,-24.3194 l -10.9427,-7.2250 l -7.2250,10.9427 l 8.0106,2.1464 l 14.3729,42.4871 l -0.2876,17.0944 l -2.1464,8.0106 l -16.8069,-17.3820 l -14.9480,-8.2982 l 4.2929,-16.0212 l -6.9374,-6.1517 l -14.1624,4.7910 l 6.9374,6.1517 l 5.0785,-2.9321 l 4.0053,1.0732 l -11.2303,9.8695 l -5.0785,2.9321 l -2.9321,-5.0785 l -0.7857,-13.0891 l -14.9480,-8.2982 l -10.1570,5.8642 l -14.3729,-42.4871 l -8.0106,-2.1464 l 7.2250,-10.9427 l 10.9427,7.2250 l 10.6551,24.3194 l 8.0106,2.1464 l 10.1570,-5.8642 l 8.0106,2.1464 l 2.9321,5.0785 "/></g><g stroke-linejoin="bevel" fill-opacity="0.0" fill="rgb(0,0,0)" stroke="rgb(0,0,0)" stroke-linecap="butt" stroke-miterlimit="10.0" stroke-opacity="1.0" stroke-width="0.44999999999999984"><path d="M 367.4123,349.2653 l -3.2197,12.0159 l -18.1677,3.7177 l -20.8122,-18.4552 "/></g><g stroke-linejoin="bevel" fill-opacity="0.0" fill="rgb(0,0,0)" stroke="rgb(0,0,0)" stroke-linecap="butt" stroke-miterlimit="10.0" stroke-opacity="1.0" stroke-width="0.44999999999999984"><path d="M 364.4802,344.1868 l 8.0106,2.1464 l -10.1570,5.8642 l -2.9321,-5.0785 "/></g><g stroke-linejoin="bevel" fill-opacity="0.0" fill="rgb(0,0,0)" stroke="rgb(0,0,0)" stroke-linecap="butt" stroke-miterlimit="10.0" stroke-opacity="1.0" stroke-width="0.44999999999999984"><path d="M 366.9142,319.0817 l 1.5713,26.1783 "/></g><g stroke-linejoin="bevel" fill-opacity="0.0" fill="rgb(0,0,0)" stroke="rgb(0,0,0)" stroke-linecap="butt" stroke-miterlimit="10.0" stroke-opacity="1.0" stroke-width="0.44999999999999984"><path d="M 356.7572,324.9459 l -5.0785,2.9321 "/></g><g stroke-linejoin="bevel" fill-opacity="0.0" fill="rgb(0,0,0)" stroke="rgb(0,0,0)" stroke-linecap="butt" stroke-miterlimit="10.0" stroke-opacity="1.0" stroke-width="0.44999999999999984"><path d="M 350.6054,331.8833 l 0.2876,-17.0944 l 1.8589,9.0838 l 6.1517,-6.9374 l 8.0106,2.1464 l -1.0732,4.0053 l -4.0053,-1.0732 l 1.0732,-4.0053 "/></g><g stroke-linejoin="bevel" fill-opacity="0.0" fill="rgb(0,0,0)" stroke="rgb(0,0,0)" stroke-linecap="butt" stroke-miterlimit="10.0" stroke-opacity="1.0" stroke-width="0.44999999999999984"><path d="M 348.4590,339.8939 l 2.1464,-8.0106 l 4.0053,1.0732 "/></g><g stroke-linejoin="bevel" fill-opacity="0.0" fill="rgb(0,0,0)" stroke="rgb(0,0,0)" stroke-linecap="butt" stroke-miterlimit="10.0" stroke-opacity="1.0" stroke-width="0.44999999999999984"><path d="M 308.6935,312.0673 l 8.0106,2.1464 l 14.9480,8.2982 l 16.8069,17.3820 l -2.1464,8.0106 l 2.9321,5.0785 "/></g><g stroke-linejoin="bevel" fill-opacity="0.0" fill="rgb(0,0,0)" stroke="rgb(0,0,0)" stroke-linecap="butt" stroke-miterlimit="10.0" stroke-opacity="1.0" stroke-width="0.44999999999999984"><path d="M 299.6097,313.9262 l 5.0785,-2.9321 l 11.2303,-9.8695 l -4.0053,-1.0732 l -5.0785,2.9321 l -6.9374,-6.1517 l 14.1624,-4.7910 l 6.9374,6.1517 l -4.2929,16.0212 "/></g><g stroke-linejoin="bevel" fill-opacity="0.0" fill="rgb(0,0,0)" stroke="rgb(0,0,0)" stroke-linecap="butt" stroke-miterlimit="10.0" stroke-opacity="1.0" stroke-width="0.44999999999999984"><path d="M 270.7869,293.3245 l 10.1570,-5.8642 l 14.9480,8.2982 l 0.7857,13.0891 l 2.9321,5.0785 l 6.9374,6.1517 "/></g><g stroke-linejoin="bevel" fill-opacity="0.0" fill="rgb(0,0,0)" stroke="rgb(0,0,0)" stroke-linecap="butt" stroke-miterlimit="10.0" stroke-opacity="1.0" stroke-width="0.44999999999999984"><path d="M 149.9962,360.7061 l 12.0159,-3.2197 "/></g><g stroke-linejoin="bevel" fill-opacity="0.0" fill="rgb(0,0,0)" stroke="rgb(0,0,0)" stroke-linecap="butt" stroke-miterlimit="10.0" stroke-opacity="1.0" stroke-width="0.44999999999999984"><path d="M 155.2853,316.3602 l -10.1570,-5.8642 l 22.6710,-27.5391 l -2.1464,-8.0106 "/></g><g stroke-linejoin="bevel" fill-opacity="0.0" fill="rgb(0,0,0)" stroke="rgb(0,0,0)" stroke-linecap="butt" stroke-miterlimit="10.0" stroke-opacity="1.0" stroke-width="0.44999999999999984"><path d="M 216.0170,398.8232 l -1.0732,-4.0053 l -4.0053,1.0732 l 4.0053,-1.0732 l 1.0732,4.0053 "/></g><g stroke-linejoin="bevel" fill-opacity="0.0" fill="rgb(0,0,0)" stroke="rgb(0,0,0)" stroke-linecap="butt" stroke-miterlimit="10.0" stroke-opacity="1.0" stroke-width="0.44999999999999984"><path d="M 222.9544,392.6715 l -6.9374,6.1517 l -5.0785,-2.9321 l -1.0732,-4.0053 "/></g><g stroke-linejoin="bevel" fill-opacity="0.0" fill="rgb(0,0,0)" stroke="rgb(0,0,0)" stroke-linecap="butt" stroke-miterlimit="10.0" stroke-opacity="1.0" stroke-width="0.44999999999999984"><path d="M 170.8084,342.2509 l 5.0785,2.9321 "/></g><g stroke-linejoin="bevel" fill-opacity="0.0" fill="rgb(0,0,0)" stroke="rgb(0,0,0)" stroke-linecap="butt" stroke-miterlimit="10.0" stroke-opacity="1.0" stroke-width="0.44999999999999984"><path d="M 151.8551,351.6222 l 18.9533,-9.3714 l 2.1464,8.0106 "/></g><g stroke-linejoin="bevel" fill-opacity="0.0" fill="rgb(0,0,0)" stroke="rgb(0,0,0)" stroke-linecap="butt" stroke-miterlimit="10.0" stroke-opacity="1.0" stroke-width="0.44999999999999984"><path d="M 168.9495,351.3347 l -6.1517,-6.9374 "/></g><g stroke-linejoin="bevel" fill-opacity="0.0" fill="rgb(0,0,0)" stroke="rgb(0,0,0)" stroke-linecap="butt" stroke-miterlimit="10.0" stroke-opacity="1.0" stroke-width="0.44999999999999984"><path d="M 160.9389,353.4811 l -9.0838,-1.8589 "/></g><g stroke-linejoin="bevel" fill-opacity="0.0" fill="rgb(0,0,0)" stroke="rgb(0,0,0)" stroke-linecap="butt" stroke-miterlimit="10.0" stroke-opacity="1.0" stroke-width="0.44999999999999984"><path d="M 163.0854,361.4917 l -28.8228,20.6017 "/></g><g stroke-linejoin="bevel" fill-opacity="0.0" fill="rgb(0,0,0)" stroke="rgb(0,0,0)" stroke-linecap="butt" stroke-miterlimit="10.0" stroke-opacity="1.0" stroke-width="0.44999999999999984"><path d="M 168.1639,364.4238 l -35.7602,26.7534 "/></g><g stroke-linejoin="bevel" fill-opacity="0.0" fill="rgb(0,0,0)" stroke="rgb(0,0,0)" stroke-linecap="butt" stroke-miterlimit="10.0" stroke-opacity="1.0" stroke-width="0.44999999999999984"><path d="M 176.9601,349.1882 l -0.7857,13.0891 l -25.6031,32.6176 "/></g><g stroke-linejoin="bevel" fill-opacity="0.0" fill="rgb(0,0,0)" stroke="rgb(0,0,0)" stroke-linecap="butt" stroke-miterlimit="10.0" stroke-opacity="1.0" stroke-width="0.44999999999999984"><path d="M 192.6938,327.8009 l -1.0732,-4.0053 l 21.8854,-14.4499 l -2.1464,-8.0106 l -9.0838,-1.8589 l 6.9374,-6.1517 "/></g><g stroke-linejoin="bevel" fill-opacity="0.0" fill="rgb(0,0,0)" stroke="rgb(0,0,0)" stroke-linecap="butt" stroke-miterlimit="10.0" stroke-opacity="1.0" stroke-width="0.44999999999999984"><path d="M 167.5887,330.2349 l 20.0265,-5.3661 l 5.0785,2.9321 l -2.9321,5.0785 "/></g><g stroke-linejoin="bevel" fill-opacity="0.0" fill="rgb(0,0,0)" stroke="rgb(0,0,0)" stroke-linecap="butt" stroke-miterlimit="10.0" stroke-opacity="1.0" stroke-width="0.44999999999999984"><path d="M 197.0637,408.1946 l -8.0106,2.1464 l -2.1464,-8.0106 l -10.1570,-5.8642 l -2.1464,-8.0106 l 15.7337,-21.3873 l 0.7857,-13.0891 l -13.0891,-0.7857 l 2.1464,8.0106 l -29.6084,33.6908 l -14.9480,8.2982 l -8.0106,2.1464 l 6.6498,-23.2462 l -0.2876,-17.0944 l 16.0212,-4.2929 l 1.8589,-9.0838 l -11.2303,-9.8695 l -1.8589,9.0838 l 5.0785,2.9321 l 1.0732,4.0053 l -14.1624,-4.7910 l -5.0785,-2.9321 l 2.9321,-5.0785 l 10.9427,-7.2250 l -0.2876,-17.0944 l -10.1570,-5.8642 l 29.6084,-33.6908 l -2.1464,-8.0106 l 13.0891,0.7857 l -0.7857,13.0891 l -15.7337,21.3873 l 2.1464,8.0106 l 10.1570,5.8642 l 2.1464,8.0106 l -2.9321,5.0785 "/></g><g stroke-linejoin="bevel" fill-opacity="0.0" fill="rgb(0,0,0)" stroke="rgb(0,0,0)" stroke-linecap="butt" stroke-miterlimit="10.0" stroke-opacity="1.0" stroke-width="0.44999999999999984"><path d="M 209.0796,404.9749 l -12.0159,3.2197 l -12.3035,-13.8748 l 5.5766,-27.2515 "/></g><g stroke-linejoin="bevel" fill-opacity="0.0" fill="rgb(0,0,0)" stroke="rgb(0,0,0)" stroke-linecap="butt" stroke-miterlimit="10.0" stroke-opacity="1.0" stroke-width="0.44999999999999984"><path d="M 212.0117,399.8964 l 2.1464,8.0106 l -10.1570,-5.8642 l 2.9321,-5.0785 "/></g><g stroke-linejoin="bevel" fill-opacity="0.0" fill="rgb(0,0,0)" stroke="rgb(0,0,0)" stroke-linecap="butt" stroke-miterlimit="10.0" stroke-opacity="1.0" stroke-width="0.44999999999999984"><path d="M 234.9703,389.4518 l -21.8854,14.4499 "/></g><g stroke-linejoin="bevel" fill-opacity="0.0" fill="rgb(0,0,0)" stroke="rgb(0,0,0)" stroke-linecap="butt" stroke-miterlimit="10.0" stroke-opacity="1.0" stroke-width="0.44999999999999984"><path d="M 224.8133,383.5876 l -5.0785,-2.9321 "/></g><g stroke-linejoin="bevel" fill-opacity="0.0" fill="rgb(0,0,0)" stroke="rgb(0,0,0)" stroke-linecap="butt" stroke-miterlimit="10.0" stroke-opacity="1.0" stroke-width="0.44999999999999984"><path d="M 215.7295,381.7288 l 14.9480,-8.2982 l -6.9374,6.1517 l 9.0838,1.8589 l 2.1464,8.0106 l -4.0053,1.0732 l -1.0732,-4.0053 l 4.0053,-1.0732 "/></g><g stroke-linejoin="bevel" fill-opacity="0.0" fill="rgb(0,0,0)" stroke="rgb(0,0,0)" stroke-linecap="butt" stroke-miterlimit="10.0" stroke-opacity="1.0" stroke-width="0.44999999999999984"><path d="M 207.7188,383.8752 l 8.0106,-2.1464 l 1.0732,4.0053 "/></g><g stroke-linejoin="bevel" fill-opacity="0.0" fill="rgb(0,0,0)" stroke="rgb(0,0,0)" stroke-linecap="butt" stroke-miterlimit="10.0" stroke-opacity="1.0" stroke-width="0.44999999999999984"><path d="M 211.9347,335.5240 l 2.1464,8.0106 l 0.2876,17.0944 l -6.6498,23.2462 l -8.0106,2.1464 l -2.9321,5.0785 "/></g><g stroke-linejoin="bevel" fill-opacity="0.0" fill="rgb(0,0,0)" stroke="rgb(0,0,0)" stroke-linecap="butt" stroke-miterlimit="10.0" stroke-opacity="1.0" stroke-width="0.44999999999999984"><path d="M 205.7829,328.5866 l 5.0785,2.9321 l 14.1624,4.7910 l -1.0732,-4.0053 l -5.0785,-2.9321 l 1.8589,-9.0838 l 11.2303,9.8695 l -1.8589,9.0838 l -16.0212,4.2929 "/></g><g stroke-linejoin="bevel" fill-opacity="0.0" fill="rgb(0,0,0)" stroke="rgb(0,0,0)" stroke-linecap="butt" stroke-miterlimit="10.0" stroke-opacity="1.0" stroke-width="0.44999999999999984"><path d="M 209.2131,293.3245 l 10.1570,5.8642 l 0.2876,17.0944 l -10.9427,7.2250 l -2.9321,5.0785 l -1.8589,9.0838 "/></g><g stroke-linejoin="bevel" fill-opacity="0.0" fill="rgb(0,0,0)" stroke="rgb(0,0,0)" stroke-linecap="butt" stroke-miterlimit="10.0" stroke-opacity="1.0" stroke-width="0.44999999999999984"><path d="M 90.4636,222.4075 l 8.7963,8.7963 "/></g><g stroke-linejoin="bevel" fill-opacity="0.0" fill="rgb(0,0,0)" stroke="rgb(0,0,0)" stroke-linecap="butt" stroke-miterlimit="10.0" stroke-opacity="1.0" stroke-width="0.44999999999999984"><path d="M 131.5128,204.8150 v -11.7283 l 35.1850,5.8642 l 5.8642,-5.8642 "/></g><g stroke-linejoin="bevel" fill-opacity="0.0" fill="rgb(0,0,0)" stroke="rgb(0,0,0)" stroke-linecap="butt" stroke-miterlimit="10.0" stroke-opacity="1.0" stroke-width="0.44999999999999984"><path d="M 90.4636,298.6417 l 2.9321,-2.9321 l -2.9321,-2.9321 l 2.9321,2.9321 l -2.9321,2.9321 "/></g><g stroke-linejoin="bevel" fill-opacity="0.0" fill="rgb(0,0,0)" stroke="rgb(0,0,0)" stroke-linecap="butt" stroke-miterlimit="10.0" stroke-opacity="1.0" stroke-width="0.44999999999999984"><path d="M 99.2598,301.5738 l -8.7963,-2.9321 v -5.8642 l 2.9321,-2.9321 "/></g><g stroke-linejoin="bevel" fill-opacity="0.0" fill="rgb(0,0,0)" stroke="rgb(0,0,0)" stroke-linecap="butt" stroke-miterlimit="10.0" stroke-opacity="1.0" stroke-width="0.44999999999999984"><path d="M 116.8524,231.2037 v 5.8642 "/></g><g stroke-linejoin="bevel" fill-opacity="0.0" fill="rgb(0,0,0)" stroke="rgb(0,0,0)" stroke-linecap="butt" stroke-miterlimit="10.0" stroke-opacity="1.0" stroke-width="0.44999999999999984"><path d="M 99.2598,219.4754 l 17.5925,11.7283 l -5.8642,5.8642 "/></g><g stroke-linejoin="bevel" fill-opacity="0.0" fill="rgb(0,0,0)" stroke="rgb(0,0,0)" stroke-linecap="butt" stroke-miterlimit="10.0" stroke-opacity="1.0" stroke-width="0.44999999999999984"><path d="M 108.0561,234.1358 l 2.9321,-8.7963 "/></g><g stroke-linejoin="bevel" fill-opacity="0.0" fill="rgb(0,0,0)" stroke="rgb(0,0,0)" stroke-linecap="butt" stroke-miterlimit="10.0" stroke-opacity="1.0" stroke-width="0.44999999999999984"><path d="M 102.1919,228.2717 l -2.9321,-8.7963 "/></g><g stroke-linejoin="bevel" fill-opacity="0.0" fill="rgb(0,0,0)" stroke="rgb(0,0,0)" stroke-linecap="butt" stroke-miterlimit="10.0" stroke-opacity="1.0" stroke-width="0.44999999999999984"><path d="M 96.3278,234.1358 l -32.2530,-14.6604 "/></g><g stroke-linejoin="bevel" fill-opacity="0.0" fill="rgb(0,0,0)" stroke="rgb(0,0,0)" stroke-linecap="butt" stroke-miterlimit="10.0" stroke-opacity="1.0" stroke-width="0.44999999999999984"><path d="M 96.3278,240.0000 l -41.0492,-17.5925 "/></g><g stroke-linejoin="bevel" fill-opacity="0.0" fill="rgb(0,0,0)" stroke="rgb(0,0,0)" stroke-linecap="butt" stroke-miterlimit="10.0" stroke-opacity="1.0" stroke-width="0.44999999999999984"><path d="M 113.9203,240.0000 l -11.7283,5.8642 l -41.0492,-5.8642 "/></g><g stroke-linejoin="bevel" fill-opacity="0.0" fill="rgb(0,0,0)" stroke="rgb(0,0,0)" stroke-linecap="butt" stroke-miterlimit="10.0" stroke-opacity="1.0" stroke-width="0.44999999999999984"><path d="M 140.3091,242.9321 l 2.9321,-2.9321 l 23.4567,11.7283 l 5.8642,-5.8642 l -2.9321,-8.7963 l 8.7963,2.9321 "/></g><g stroke-linejoin="bevel" fill-opacity="0.0" fill="rgb(0,0,0)" stroke="rgb(0,0,0)" stroke-linecap="butt" stroke-miterlimit="10.0" stroke-opacity="1.0" stroke-width="0.44999999999999984"><path d="M 125.6486,222.4075 l 14.6604,14.6604 v 5.8642 h -5.8642 "/></g><g stroke-linejoin="bevel" fill-opacity="0.0" fill="rgb(0,0,0)" stroke="rgb(0,0,0)" stroke-linecap="butt" stroke-miterlimit="10.0" stroke-opacity="1.0" stroke-width="0.44999999999999984"><path d="M 72.8711,286.9134 l -5.8642,-5.8642 l 5.8642,-5.8642 v -11.7283 l 5.8642,-5.8642 l 26.3888,2.9321 l 11.7283,-5.8642 l -5.8642,-11.7283 l -5.8642,5.8642 l -43.9813,-8.7963 l -14.6604,-8.7963 l -5.8642,-5.8642 l 23.4567,-5.8642 l 14.6604,-8.7963 l 11.7283,11.7283 l 8.7963,-2.9321 l 2.9321,-14.6604 l -8.7963,2.9321 v 5.8642 l -2.9321,2.9321 l -2.9321,-14.6604 v -5.8642 l 5.8642,0.0000 l 11.7283,5.8642 l 14.6604,-8.7963 v -11.7283 l 43.9813,8.7963 l 5.8642,-5.8642 l 5.8642,11.7283 l -11.7283,5.8642 l -26.3888,-2.9321 l -5.8642,5.8642 v 11.7283 l -5.8642,5.8642 l -5.8642,-0.0000 "/></g><g stroke-linejoin="bevel" fill-opacity="0.0" fill="rgb(0,0,0)" stroke="rgb(0,0,0)" stroke-linecap="butt" stroke-miterlimit="10.0" stroke-opacity="1.0" stroke-width="0.44999999999999984"><path d="M 81.6673,295.7096 l -8.7963,-8.7963 l 5.8642,-17.5925 l 26.3888,-8.7963 "/></g><g stroke-linejoin="bevel" fill-opacity="0.0" fill="rgb(0,0,0)" stroke="rgb(0,0,0)" stroke-linecap="butt" stroke-miterlimit="10.0" stroke-opacity="1.0" stroke-width="0.44999999999999984"><path d="M 87.5315,295.7096 l -5.8642,5.8642 v -11.7283 l 5.8642,0.0000 "/></g><g stroke-linejoin="bevel" fill-opacity="0.0" fill="rgb(0,0,0)" stroke="rgb(0,0,0)" stroke-linecap="butt" stroke-miterlimit="10.0" stroke-opacity="1.0" stroke-width="0.44999999999999984"><path d="M 108.0561,310.3701 l -23.4567,-11.7283 "/></g><g stroke-linejoin="bevel" fill-opacity="0.0" fill="rgb(0,0,0)" stroke="rgb(0,0,0)" stroke-linecap="butt" stroke-miterlimit="10.0" stroke-opacity="1.0" stroke-width="0.44999999999999984"><path d="M 108.0561,298.6417 v -5.8642 "/></g><g stroke-linejoin="bevel" fill-opacity="0.0" fill="rgb(0,0,0)" stroke="rgb(0,0,0)" stroke-linecap="butt" stroke-miterlimit="10.0" stroke-opacity="1.0" stroke-width="0.44999999999999984"><path d="M 105.1240,289.8455 l 14.6604,8.7963 l -8.7963,-2.9321 l 2.9321,8.7963 l -5.8642,5.8642 l -2.9321,-2.9321 l 2.9321,-2.9321 l 2.9321,2.9321 "/></g><g stroke-linejoin="bevel" fill-opacity="0.0" fill="rgb(0,0,0)" stroke="rgb(0,0,0)" stroke-linecap="butt" stroke-miterlimit="10.0" stroke-opacity="1.0" stroke-width="0.44999999999999984"><path d="M 99.2598,283.9813 l 5.8642,5.8642 l -2.9321,2.9321 "/></g><g stroke-linejoin="bevel" fill-opacity="0.0" fill="rgb(0,0,0)" stroke="rgb(0,0,0)" stroke-linecap="butt" stroke-miterlimit="10.0" stroke-opacity="1.0" stroke-width="0.44999999999999984"><path d="M 143.2411,263.4567 l -5.8642,5.8642 l -14.6604,8.7963 l -23.4567,5.8642 l -5.8642,-5.8642 l -5.8642,-0.0000 "/></g><g stroke-linejoin="bevel" fill-opacity="0.0" fill="rgb(0,0,0)" stroke="rgb(0,0,0)" stroke-linecap="butt" stroke-miterlimit="10.0" stroke-opacity="1.0" stroke-width="0.44999999999999984"><path d="M 146.1732,254.6604 v 5.8642 l 2.9321,14.6604 l 2.9321,-2.9321 v -5.8642 l 8.7963,-2.9321 l -2.9321,14.6604 l -8.7963,2.9321 l -11.7283,-11.7283 "/></g><g stroke-linejoin="bevel" fill-opacity="0.0" fill="rgb(0,0,0)" stroke="rgb(0,0,0)" stroke-linecap="butt" stroke-miterlimit="10.0" stroke-opacity="1.0" stroke-width="0.44999999999999984"><path d="M 178.4262,240.0000 v 11.7283 l -14.6604,8.7963 l -11.7283,-5.8642 h -5.8642 l -8.7963,2.9321 "/></g><g stroke-linejoin="bevel" fill-opacity="0.0" fill="rgb(0,0,0)" stroke="rgb(0,0,0)" stroke-linecap="butt" stroke-miterlimit="10.0" stroke-opacity="1.0" stroke-width="0.44999999999999984"><path d="M 180.4674,101.7014 l -3.2197,12.0159 "/></g><g stroke-linejoin="bevel" fill-opacity="0.0" fill="rgb(0,0,0)" stroke="rgb(0,0,0)" stroke-linecap="butt" stroke-miterlimit="10.0" stroke-opacity="1.0" stroke-width="0.44999999999999984"><path d="M 216.2275,128.4548 l 10.1570,-5.8642 l 12.5140,33.4032 l 8.0106,2.1464 "/></g><g stroke-linejoin="bevel" fill-opacity="0.0" fill="rgb(0,0,0)" stroke="rgb(0,0,0)" stroke-linecap="butt" stroke-miterlimit="10.0" stroke-opacity="1.0" stroke-width="0.44999999999999984"><path d="M 114.4466,139.8185 l 4.0053,1.0732 l 1.0732,-4.0053 l -1.0732,4.0053 l -4.0053,-1.0732 "/></g><g stroke-linejoin="bevel" fill-opacity="0.0" fill="rgb(0,0,0)" stroke="rgb(0,0,0)" stroke-linecap="butt" stroke-miterlimit="10.0" stroke-opacity="1.0" stroke-width="0.44999999999999984"><path d="M 116.3054,148.9024 l -1.8589,-9.0838 l 5.0785,-2.9321 l 4.0053,1.0732 "/></g><g stroke-linejoin="bevel" fill-opacity="0.0" fill="rgb(0,0,0)" stroke="rgb(0,0,0)" stroke-linecap="butt" stroke-miterlimit="10.0" stroke-opacity="1.0" stroke-width="0.44999999999999984"><path d="M 186.0440,128.9529 l -5.0785,2.9321 "/></g><g stroke-linejoin="bevel" fill-opacity="0.0" fill="rgb(0,0,0)" stroke="rgb(0,0,0)" stroke-linecap="butt" stroke-miterlimit="10.0" stroke-opacity="1.0" stroke-width="0.44999999999999984"><path d="M 187.4048,107.8531 l -1.3608,21.0997 l -8.0106,-2.1464 "/></g><g stroke-linejoin="bevel" fill-opacity="0.0" fill="rgb(0,0,0)" stroke="rgb(0,0,0)" stroke-linecap="butt" stroke-miterlimit="10.0" stroke-opacity="1.0" stroke-width="0.44999999999999984"><path d="M 179.1066,122.8011 l 9.0838,-1.8589 "/></g><g stroke-linejoin="bevel" fill-opacity="0.0" fill="rgb(0,0,0)" stroke="rgb(0,0,0)" stroke-linecap="butt" stroke-miterlimit="10.0" stroke-opacity="1.0" stroke-width="0.44999999999999984"><path d="M 181.2530,114.7905 l 6.1517,-6.9374 "/></g><g stroke-linejoin="bevel" fill-opacity="0.0" fill="rgb(0,0,0)" stroke="rgb(0,0,0)" stroke-linecap="butt" stroke-miterlimit="10.0" stroke-opacity="1.0" stroke-width="0.44999999999999984"><path d="M 173.2424,112.6441 l -3.4302,-35.2621 "/></g><g stroke-linejoin="bevel" fill-opacity="0.0" fill="rgb(0,0,0)" stroke="rgb(0,0,0)" stroke-linecap="butt" stroke-miterlimit="10.0" stroke-opacity="1.0" stroke-width="0.44999999999999984"><path d="M 168.1639,115.5762 l -5.2890,-44.3459 "/></g><g stroke-linejoin="bevel" fill-opacity="0.0" fill="rgb(0,0,0)" stroke="rgb(0,0,0)" stroke-linecap="butt" stroke-miterlimit="10.0" stroke-opacity="1.0" stroke-width="0.44999999999999984"><path d="M 176.9601,130.8118 l -10.9427,-7.2250 l -15.4461,-38.4817 "/></g><g stroke-linejoin="bevel" fill-opacity="0.0" fill="rgb(0,0,0)" stroke="rgb(0,0,0)" stroke-linecap="butt" stroke-miterlimit="10.0" stroke-opacity="1.0" stroke-width="0.44999999999999984"><path d="M 187.6153,155.1312 l 4.0053,1.0732 l 1.5713,26.1783 l 8.0106,2.1464 l 6.1517,-6.9374 l 1.8589,9.0838 "/></g><g stroke-linejoin="bevel" fill-opacity="0.0" fill="rgb(0,0,0)" stroke="rgb(0,0,0)" stroke-linecap="butt" stroke-miterlimit="10.0" stroke-opacity="1.0" stroke-width="0.44999999999999984"><path d="M 198.0599,132.1725 l -5.3661,20.0265 l -5.0785,2.9321 l -2.9321,-5.0785 "/></g><g stroke-linejoin="bevel" fill-opacity="0.0" fill="rgb(0,0,0)" stroke="rgb(0,0,0)" stroke-linecap="butt" stroke-miterlimit="10.0" stroke-opacity="1.0" stroke-width="0.44999999999999984"><path d="M 115.8073,118.7188 l 2.1464,-8.0106 l 8.0106,2.1464 l 10.1570,-5.8642 l 8.0106,2.1464 l 10.6551,24.3194 l 10.9427,7.2250 l 7.2250,-10.9427 l -8.0106,-2.1464 l -14.3729,-42.4871 l 0.2876,-17.0944 l 2.1464,-8.0106 l 16.8069,17.3820 l 14.9480,8.2982 l -4.2929,16.0212 l 6.9374,6.1517 l 14.1624,-4.7910 l -6.9374,-6.1517 l -5.0785,2.9321 l -4.0053,-1.0732 l 11.2303,-9.8695 l 5.0785,-2.9321 l 2.9321,5.0785 l 0.7857,13.0891 l 14.9480,8.2982 l 10.1570,-5.8642 l 14.3729,42.4871 l 8.0106,2.1464 l -7.2250,10.9427 l -10.9427,-7.2250 l -10.6551,-24.3194 l -8.0106,-2.1464 l -10.1570,5.8642 l -8.0106,-2.1464 l -2.9321,-5.0785 "/></g><g stroke-linejoin="bevel" fill-opacity="0.0" fill="rgb(0,0,0)" stroke="rgb(0,0,0)" stroke-linecap="butt" stroke-miterlimit="10.0" stroke-opacity="1.0" stroke-width="0.44999999999999984"><path d="M 112.5877,130.7347 l 3.2197,-12.0159 l 18.1677,-3.7177 l 20.8122,18.4552 "/></g><g stroke-linejoin="bevel" fill-opacity="0.0" fill="rgb(0,0,0)" stroke="rgb(0,0,0)" stroke-linecap="butt" stroke-miterlimit="10.0" stroke-opacity="1.0" stroke-width="0.44999999999999984"><path d="M 115.5198,135.8132 l -8.0106,-2.1464 l 10.1570,-5.8642 l 2.9321,5.0785 "/></g><g stroke-linejoin="bevel" fill-opacity="0.0" fill="rgb(0,0,0)" stroke="rgb(0,0,0)" stroke-linecap="butt" stroke-miterlimit="10.0" stroke-opacity="1.0" stroke-width="0.44999999999999984"><path d="M 113.0858,160.9183 l -1.5713,-26.1783 "/></g><g stroke-linejoin="bevel" fill-opacity="0.0" fill="rgb(0,0,0)" stroke="rgb(0,0,0)" stroke-linecap="butt" stroke-miterlimit="10.0" stroke-opacity="1.0" stroke-width="0.44999999999999984"><path d="M 123.2428,155.0541 l 5.0785,-2.9321 "/></g><g stroke-linejoin="bevel" fill-opacity="0.0" fill="rgb(0,0,0)" stroke="rgb(0,0,0)" stroke-linecap="butt" stroke-miterlimit="10.0" stroke-opacity="1.0" stroke-width="0.44999999999999984"><path d="M 129.3946,148.1167 l -0.2876,17.0944 l -1.8589,-9.0838 l -6.1517,6.9374 l -8.0106,-2.1464 l 1.0732,-4.0053 l 4.0053,1.0732 l -1.0732,4.0053 "/></g><g stroke-linejoin="bevel" fill-opacity="0.0" fill="rgb(0,0,0)" stroke="rgb(0,0,0)" stroke-linecap="butt" stroke-miterlimit="10.0" stroke-opacity="1.0" stroke-width="0.44999999999999984"><path d="M 131.5410,140.1061 l -2.1464,8.0106 l -4.0053,-1.0732 "/></g><g stroke-linejoin="bevel" fill-opacity="0.0" fill="rgb(0,0,0)" stroke="rgb(0,0,0)" stroke-linecap="butt" stroke-miterlimit="10.0" stroke-opacity="1.0" stroke-width="0.44999999999999984"><path d="M 171.3065,167.9327 l -8.0106,-2.1464 l -14.9480,-8.2982 l -16.8069,-17.3820 l 2.1464,-8.0106 l -2.9321,-5.0785 "/></g><g stroke-linejoin="bevel" fill-opacity="0.0" fill="rgb(0,0,0)" stroke="rgb(0,0,0)" stroke-linecap="butt" stroke-miterlimit="10.0" stroke-opacity="1.0" stroke-width="0.44999999999999984"><path d="M 180.3903,166.0738 l -5.0785,2.9321 l -11.2303,9.8695 l 4.0053,1.0732 l 5.0785,-2.9321 l 6.9374,6.1517 l -14.1624,4.7910 l -6.9374,-6.1517 l 4.2929,-16.0212 "/></g><g stroke-linejoin="bevel" fill-opacity="0.0" fill="rgb(0,0,0)" stroke="rgb(0,0,0)" stroke-linecap="butt" stroke-miterlimit="10.0" stroke-opacity="1.0" stroke-width="0.44999999999999984"><path d="M 209.2131,186.6755 l -10.1570,5.8642 l -14.9480,-8.2982 l -0.7857,-13.0891 l -2.9321,-5.0785 l -6.9374,-6.1517 "/></g><g stroke-linejoin="bevel" fill-opacity="0.0" fill="rgb(0,0,0)" stroke="rgb(0,0,0)" stroke-linecap="butt" stroke-miterlimit="10.0" stroke-opacity="1.0" stroke-width="0.44999999999999984"><path d="M 330.0038,119.2939 l -12.0159,3.2197 "/></g><g stroke-linejoin="bevel" fill-opacity="0.0" fill="rgb(0,0,0)" stroke="rgb(0,0,0)" stroke-linecap="butt" stroke-miterlimit="10.0" stroke-opacity="1.0" stroke-width="0.44999999999999984"><path d="M 324.7147,163.6398 l 10.1570,5.8642 l -22.6710,27.5391 l 2.1464,8.0106 "/></g><g stroke-linejoin="bevel" fill-opacity="0.0" fill="rgb(0,0,0)" stroke="rgb(0,0,0)" stroke-linecap="butt" stroke-miterlimit="10.0" stroke-opacity="1.0" stroke-width="0.44999999999999984"><path d="M 263.9830,81.1768 l 1.0732,4.0053 l 4.0053,-1.0732 l -4.0053,1.0732 l -1.0732,-4.0053 "/></g><g stroke-linejoin="bevel" fill-opacity="0.0" fill="rgb(0,0,0)" stroke="rgb(0,0,0)" stroke-linecap="butt" stroke-miterlimit="10.0" stroke-opacity="1.0" stroke-width="0.44999999999999984"><path d="M 257.0456,87.3285 l 6.9374,-6.1517 l 5.0785,2.9321 l 1.0732,4.0053 "/></g><g stroke-linejoin="bevel" fill-opacity="0.0" fill="rgb(0,0,0)" stroke="rgb(0,0,0)" stroke-linecap="butt" stroke-miterlimit="10.0" stroke-opacity="1.0" stroke-width="0.44999999999999984"><path d="M 309.1916,137.7491 l -5.0785,-2.9321 "/></g><g stroke-linejoin="bevel" fill-opacity="0.0" fill="rgb(0,0,0)" stroke="rgb(0,0,0)" stroke-linecap="butt" stroke-miterlimit="10.0" stroke-opacity="1.0" stroke-width="0.44999999999999984"><path d="M 328.1449,128.3778 l -18.9533,9.3714 l -2.1464,-8.0106 "/></g><g stroke-linejoin="bevel" fill-opacity="0.0" fill="rgb(0,0,0)" stroke="rgb(0,0,0)" stroke-linecap="butt" stroke-miterlimit="10.0" stroke-opacity="1.0" stroke-width="0.44999999999999984"><path d="M 311.0505,128.6653 l 6.1517,6.9374 "/></g><g stroke-linejoin="bevel" fill-opacity="0.0" fill="rgb(0,0,0)" stroke="rgb(0,0,0)" stroke-linecap="butt" stroke-miterlimit="10.0" stroke-opacity="1.0" stroke-width="0.44999999999999984"><path d="M 319.0611,126.5189 l 9.0838,1.8589 "/></g><g stroke-linejoin="bevel" fill-opacity="0.0" fill="rgb(0,0,0)" stroke="rgb(0,0,0)" stroke-linecap="butt" stroke-miterlimit="10.0" stroke-opacity="1.0" stroke-width="0.44999999999999984"><path d="M 316.9146,118.5083 l 28.8228,-20.6017 "/></g><g stroke-linejoin="bevel" fill-opacity="0.0" fill="rgb(0,0,0)" stroke="rgb(0,0,0)" stroke-linecap="butt" stroke-miterlimit="10.0" stroke-opacity="1.0" stroke-width="0.44999999999999984"><path d="M 311.8361,115.5762 l 35.7602,-26.7534 "/></g><g stroke-linejoin="bevel" fill-opacity="0.0" fill="rgb(0,0,0)" stroke="rgb(0,0,0)" stroke-linecap="butt" stroke-miterlimit="10.0" stroke-opacity="1.0" stroke-width="0.44999999999999984"><path d="M 303.0399,130.8118 l 0.7857,-13.0891 l 25.6031,-32.6176 "/></g><g stroke-linejoin="bevel" fill-opacity="0.0" fill="rgb(0,0,0)" stroke="rgb(0,0,0)" stroke-linecap="butt" stroke-miterlimit="10.0" stroke-opacity="1.0" stroke-width="0.44999999999999984"><path d="M 287.3062,152.1991 l 1.0732,4.0053 l -21.8854,14.4499 l 2.1464,8.0106 l 9.0838,1.8589 l -6.9374,6.1517 "/></g><g stroke-linejoin="bevel" fill-opacity="0.0" fill="rgb(0,0,0)" stroke="rgb(0,0,0)" stroke-linecap="butt" stroke-miterlimit="10.0" stroke-opacity="1.0" stroke-width="0.44999999999999984"><path d="M 312.4113,149.7651 l -20.0265,5.3661 l -5.0785,-2.9321 l 2.9321,-5.0785 "/></g><g stroke-linejoin="bevel" fill-opacity="0.0" fill="rgb(0,0,0)" stroke="rgb(0,0,0)" stroke-linecap="butt" stroke-miterlimit="10.0" stroke-opacity="1.0" stroke-width="0.44999999999999984"><path d="M 282.9363,71.8054 l 8.0106,-2.1464 l 2.1464,8.0106 l 10.1570,5.8642 l 2.1464,8.0106 l -15.7337,21.3873 l -0.7857,13.0891 l 13.0891,0.7857 l -2.1464,-8.0106 l 29.6084,-33.6908 l 14.9480,-8.2982 l 8.0106,-2.1464 l -6.6498,23.2462 l 0.2876,17.0944 l -16.0212,4.2929 l -1.8589,9.0838 l 11.2303,9.8695 l 1.8589,-9.0838 l -5.0785,-2.9321 l -1.0732,-4.0053 l 14.1624,4.7910 l 5.0785,2.9321 l -2.9321,5.0785 l -10.9427,7.2250 l 0.2876,17.0944 l 10.1570,5.8642 l -29.6084,33.6908 l 2.1464,8.0106 l -13.0891,-0.7857 l 0.7857,-13.0891 l 15.7337,-21.3873 l -2.1464,-8.0106 l -10.1570,-5.8642 l -2.1464,-8.0106 l 2.9321,-5.0785 "/></g><g stroke-linejoin="bevel" fill-opacity="0.0" fill="rgb(0,0,0)" stroke="rgb(0,0,0)" stroke-linecap="butt" stroke-miterlimit="10.0" stroke-opacity="1.0" stroke-width="0.44999999999999984"><path d="M 270.9204,75.0251 l 12.0159,-3.2197 l 12.3035,13.8748 l -5.5766,27.2515 "/></g><g stroke-linejoin="bevel" fill-opacity="0.0" fill="rgb(0,0,0)" stroke="rgb(0,0,0)" stroke-linecap="butt" stroke-miterlimit="10.0" stroke-opacity="1.0" stroke-width="0.44999999999999984"><path d="M 267.9883,80.1036 l -2.1464,-8.0106 l 10.1570,5.8642 l -2.9321,5.0785 "/></g><g stroke-linejoin="bevel" fill-opacity="0.0" fill="rgb(0,0,0)" stroke="rgb(0,0,0)" stroke-linecap="butt" stroke-miterlimit="10.0" stroke-opacity="1.0" stroke-width="0.44999999999999984"><path d="M 245.0297,90.5482 l 21.8854,-14.4499 "/></g><g stroke-linejoin="bevel" fill-opacity="0.0" fill="rgb(0,0,0)" stroke="rgb(0,0,0)" stroke-linecap="butt" stroke-miterlimit="10.0" stroke-opacity="1.0" stroke-width="0.44999999999999984"><path d="M 255.1867,96.4124 l 5.0785,2.9321 "/></g><g stroke-linejoin="bevel" fill-opacity="0.0" fill="rgb(0,0,0)" stroke="rgb(0,0,0)" stroke-linecap="butt" stroke-miterlimit="10.0" stroke-opacity="1.0" stroke-width="0.44999999999999984"><path d="M 264.2705,98.2712 l -14.9480,8.2982 l 6.9374,-6.1517 l -9.0838,-1.8589 l -2.1464,-8.0106 l 4.0053,-1.0732 l 1.0732,4.0053 l -4.0053,1.0732 "/></g><g stroke-linejoin="bevel" fill-opacity="0.0" fill="rgb(0,0,0)" stroke="rgb(0,0,0)" stroke-linecap="butt" stroke-miterlimit="10.0" stroke-opacity="1.0" stroke-width="0.44999999999999984"><path d="M 272.2812,96.1248 l -8.0106,2.1464 l -1.0732,-4.0053 "/></g><g stroke-linejoin="bevel" fill-opacity="0.0" fill="rgb(0,0,0)" stroke="rgb(0,0,0)" stroke-linecap="butt" stroke-miterlimit="10.0" stroke-opacity="1.0" stroke-width="0.44999999999999984"><path d="M 268.0653,144.4760 l -2.1464,-8.0106 l -0.2876,-17.0944 l 6.6498,-23.2462 l 8.0106,-2.1464 l 2.9321,-5.0785 "/></g><g stroke-linejoin="bevel" fill-opacity="0.0" fill="rgb(0,0,0)" stroke="rgb(0,0,0)" stroke-linecap="butt" stroke-miterlimit="10.0" stroke-opacity="1.0" stroke-width="0.44999999999999984"><path d="M 274.2171,151.4134 l -5.0785,-2.9321 l -14.1624,-4.7910 l 1.0732,4.0053 l 5.0785,2.9321 l -1.8589,9.0838 l -11.2303,-9.8695 l 1.8589,-9.0838 l 16.0212,-4.2929 "/></g><g stroke-linejoin="bevel" fill-opacity="0.0" fill="rgb(0,0,0)" stroke="rgb(0,0,0)" stroke-linecap="butt" stroke-miterlimit="10.0" stroke-opacity="1.0" stroke-width="0.44999999999999984"><path d="M 270.7869,186.6755 l -10.1570,-5.8642 l -0.2876,-17.0944 l 10.9427,-7.2250 l 2.9321,-5.0785 l 1.8589,-9.0838 "/></g></svg>