<?xml version="1.0" encoding="UTF-8"?>
<!DOCTYPE svg PUBLIC "-//W3C//DTD SVG 1.1//EN"
    "http://www.w3.org/Graphics/SVG/1.1/DTD/svg11.dtd"><svg font-size="1" viewBox="0.0 0.0 479.99999999999994 479.99999999999983" stroke="rgb(0,0,0)" xmlns="http://www.w3.org/2000/svg" width="480.0000" stroke-opacity="1" height="480.0000" version="1.1" xmlns:xlink="http://www.w3.org/1999/xlink"><defs></defs><g stroke-linejoin="miter" fill-opacity="0.0" fill="rgb(0,0,0)" stroke="rgb(0,0,0)" stroke-linecap="butt" stroke-miterlimit="10.0" stroke-opacity="1.0" stroke-width="0.0"><path d="M 480.0000,480.0000 l -0.0000,-480.0000 h -480.0000 l -0.0000,480.0000 Z"/></g><g stroke-linejoin="miter" fill-opacity="0.0" fill="rgb(0,0,0)" stroke="rgb(0,0,0)" stroke-linecap="butt" stroke-miterlimit="10.0" stroke-opacity="1.0" stroke-width="0.44999999999999984"><path d="M 291.3571,130.6869 l -83.0975,27.0000 l -0.0000,-87.3738 l 83.0975,27.0000 l -51.3571,70.6869 l -51.3571,-70.6869 l 83.0975,-27.0000 l 0.0000,87.3738 l -83.0975,-27.0000 l 51.3571,-70.6869 Z"/></g><g stroke-linejoin="miter" fill-opacity="0.0" fill="rgb(0,0,0)" stroke="rgb(0,0,0)" stroke-linecap="butt" stroke-miterlimit="10.0" stroke-opacity="1.0" stroke-width="0.44999999999999984"><path d="M 217.2961,154.7508 l -83.0975,27.0000 l -0.0000,-87.3738 l 83.0975,27.0000 l -51.3571,70.6869 l -51.3571,-70.6869 l 83.0975,-27.0000 l 0.0000,87.3738 l -83.0975,-27.0000 l 51.3571,-70.6869 Z"/></g><g stroke-linejoin="miter" fill-opacity="0.0" fill="rgb(0,0,0)" stroke="rgb(0,0,0)" stroke-linecap="butt" stroke-miterlimit="10.0" stroke-opacity="1.0" stroke-width="0.44999999999999984"><path d="M 171.5239,217.7508 l -83.0975,27.0000 l -0.0000,-87.3738 l 83.0975,27.0000 l -51.3571,70.6869 l -51.3571,-70.6869 l 83.0975,-27.0000 l 0.0000,87.3738 l -83.0975,-27.0000 l 51.3571,-70.6869 Z"/></g><g stroke-linejoin="miter" fill-opacity="0.0" fill="rgb(0,0,0)" stroke="rgb(0,0,0)" stroke-linecap="butt" stroke-miterlimit="10.0" stroke-opacity="1.0" stroke-width="0.44999999999999984"><path d="M 171.5239,295.6231 l -83.0975,27.0000 l -0.0000,-87.3738 l 83.0975,27.0000 l -51.3571,70.6869 l -51.3571,-70.6869 l 83.0975,-27.0000 l 0.0000,87.3738 l -83.0975,-27.0000 l 51.3571,-70.6869 Z"/></g><g stroke-linejoin="miter" fill-opacity="0.0" fill="rgb(0,0,0)" stroke="rgb(0,0,0)" stroke-linecap="butt" stroke-miterlimit="10.0" stroke-opacity="1.0" stroke-width="0.44999999999999984"><path d="M 217.2961,358.6231 l -83.0975,27.0000 l -0.0000,-87.3738 l 83.0975,27.0000 l -51.3571,70.6869 l -51.3571,-70.6869 l 83.0975,-27.0000 l 0.0000,87.3738 l -83.0975,-27.0000 l 51.3571,-70.6869 Z"/></g><g stroke-linejoin="miter" fill-opacity="0.0" fill="rgb(0,0,0)" stroke="rgb(0,0,0)" stroke-linecap="butt" stroke-miterlimit="10.0" stroke-opacity="1.0" stroke-width="0.44999999999999984"><path d="M 291.3571,382.6869 l -83.0975,27.0000 l -0.0000,-87.3738 l 83.0975,27.0000 l -51.3571,70.6869 l -51.3571,-70.6869 l 83.0975,-27.0000 l 0.0000,87.3738 l -83.0975,-27.0000 l 51.3571,-70.6869 Z"/></g><g stroke-linejoin="miter" fill-opacity="0.0" fill="rgb(0,0,0)" stroke="rgb(0,0,0)" stroke-linecap="butt" stroke-miterlimit="10.0" stroke-opacity="1.0" stroke-width="0.44999999999999984"><path d="M 365.4180,358.6231 l -83.0975,27.0000 l -0.0000,-87.3738 l 83.0975,27.0000 l -51.3571,70.6869 l -51.3571,-70.6869 l 83.0975,-27.0000 l 0.0000,87.3738 l -83.0975,-27.0000 l 51.3571,-70.6869 Z"/></g><g stroke-linejoin="miter" fill-opacity="0.0" fill="rgb(0,0,0)" stroke="rgb(0,0,0)" stroke-linecap="butt" stroke-miterlimit="10.0" stroke-opacity="1.0" stroke-width="0.44999999999999984"><path d="M 411.1902,295.6231 l -83.0975,27.0000 l -0.0000,-87.3738 l 83.0975,27.0000 l -51.3571,70.6869 l -51.3571,-70.6869 l 83.0975,-27.0000 l 0.0000,87.3738 l -83.0975,-27.0000 l 51.3571,-70.6869 Z"/></g><g stroke-linejoin="miter" fill-opacity="0.0" fill="rgb(0,0,0)" stroke="rgb(0,0,0)" stroke-linecap="butt" stroke-miterlimit="10.0" stroke-opacity="1.0" stroke-width="0.44999999999999984"><path d="M 411.1902,217.7508 l -83.0975,27.0000 l -0.0000,-87.3738 l 83.0975,27.0000 l -51.3571,70.6869 l -51.3571,-70.6869 l 83.0975,-27.0000 l 0.0000,87.3738 l -83.0975,-27.0000 l 51.3571,-70.6869 Z"/></g><g stroke-linejoin="miter" fill-opacity="0.0" fill="rgb(0,0,0)" stroke="rgb(0,0,0)" stroke-linecap="butt" stroke-miterlimit="10.0" stroke-opacity="1.0" stroke-width="0.44999999999999984"><path d="M 365.4180,154.7508 l -83.0975,27.0000 l -0.0000,-87.3738 l 83.0975,27.0000 l -51.3571,70.6869 l -51.3571,-70.6869 l 83.0975,-27.0000 l 0.0000,87.3738 l -83.0975,-27.0000 l 51.3571,-70.6869 Z"/></g></svg>